<?xml version="1.0" encoding="utf-8"?>
<!-- Generator: Adobe Illustrator 23.0.0, SVG Export Plug-In . SVG Version: 6.00 Build 0)  -->
<svg version="1.1" id="Layer_1" xmlns="http://www.w3.org/2000/svg" xmlns:xlink="http://www.w3.org/1999/xlink" x="0px" y="0px"
	 viewBox="0 0 500 357" style="enable-background:new 0 0 500 357;" xml:space="preserve">
<style type="text/css">
	.st0{fill:#FFFFFF;}
	.st1{fill:url(#SVGID_1_);}
	.st2{fill:#566C11;}
	.st3{fill:url(#SVGID_2_);}
	.st4{fill:#231F20;}
	.st5{fill:#0067B0;}
</style>
<g>
	<path class="st0" d="M490.13,304.37l-8.14,2.52c-1,0.3-105.5,31.3-218.85,39.81c-113.36,8.51-220.51-6.6-221.53-6.76l-8.41-1.29
		L11.72,52.51l8.14-2.52c1-0.31,105.5-31.31,218.85-39.81c113.35-8.51,220.51,6.6,221.53,6.76l8.41,1.28L490.13,304.37z"/>
	
		<linearGradient id="SVGID_1_" gradientUnits="userSpaceOnUse" x1="614.1236" y1="195.1412" x2="614.1236" y2="238.7911" gradientTransform="matrix(0.9972 -0.0749 0.0749 0.9972 -369.7926 114.261)">
		<stop  offset="0" style="stop-color:#566C11"/>
		<stop  offset="1" style="stop-color:#9FAC75"/>
	</linearGradient>
	<path class="st1" d="M447.26,200.69c0,0-179.17,35.87-213.23,37.31c-28.94,1.22-158.7-2.08-197.11-4.57l7.14,95.14
		c9.59,1.31,111.03,14.6,218.18,6.55c107.16-8.04,206.24-36.39,215.58-39.12l-7.8-103.9L447.26,200.69z"/>
	<path class="st2" d="M447.25,200.56c0,0-179.65,36.59-213.72,38.02c-27.63,1.16-146.61-1.94-190.83-4.77l6.73,89.68
		c23.2,2.93,115.11,13.22,212.38,5.91c97.29-7.3,187.31-31.26,209.94-37.63l-7.35-97.89L447.25,200.56z"/>
	
		<linearGradient id="SVGID_2_" gradientUnits="userSpaceOnUse" x1="614.1277" y1="119.9588" x2="614.1277" y2="-19.6463" gradientTransform="matrix(0.9972 -0.0749 0.0749 0.9972 -369.7926 114.261)">
		<stop  offset="0" style="stop-color:#0067B0"/>
		<stop  offset="1" style="stop-color:#6791C9"/>
	</linearGradient>
	<path class="st3" d="M235.68,238.42c34.06-1.44,211.48-39.03,211.48-39.03l22.82-7.78l-12.26-163.3
		c-9.58-1.31-111.03-14.59-218.18-6.55C132.38,29.8,33.3,58.15,23.96,60.88l12.96,172.56C75.33,235.93,206.74,239.64,235.68,238.42z
		"/>
	<path class="st4" d="M470.81,15.31l-1.68-0.25l-8.4-1.29C459.71,13.6,351.44-1.5,238.47,6.98C125.25,15.48,19.92,46.61,18.91,46.92
		l-8.14,2.52l-1.62,0.5L8.34,50.2L30.2,341.44l0.84,0.13l1.68,0.26l8.41,1.29c1.02,0.16,108.23,15.35,222.26,6.79
		c111.96-8.41,215.39-38.68,219.55-39.95l8.15-2.52l1.62-0.5l0.81-0.26L471.65,15.44L470.81,15.31z M490.13,304.37l-8.14,2.52
		c-1,0.3-105.5,31.3-218.85,39.81c-113.36,8.51-220.51-6.6-221.53-6.76l-8.41-1.29L11.72,52.51l8.14-2.52
		c1-0.31,105.5-31.31,218.85-39.81c113.35-8.51,220.51,6.6,221.53,6.76l8.41,1.28L490.13,304.37z"/>
	<path class="st5" d="M235.23,239.54c34.06-1.44,211.95-39.97,211.95-39.97l17.21-5.87L452.35,33.39
		c-23.21-2.93-115.16-13.21-212.38-5.91C142.75,34.78,52.68,58.74,30.03,65.1L42.7,233.81C86.92,236.65,207.6,240.7,235.23,239.54z"
		/>
	<g>
		<g>
			<path class="st4" d="M81.08,306.32c-0.22,0.18-0.39,0.3-0.5,0.36c-0.35,0.21-0.7,0.46-1.04,0.77c-0.15,0.14-0.42,0.2-0.82,0.15
				c-0.24-0.02-0.64-0.21-1.18-0.58l-0.59-0.12c-0.57-0.14-1.11-0.52-1.63-1.13c-0.14-0.17-0.33-0.6-0.58-1.29
				c0-0.02-0.16-0.15-0.5-0.38c-0.29-0.23-0.51-0.61-0.66-1.13l-0.02-0.13c0-0.03,0.02-0.06,0.04-0.1c0.25-0.27,0.39-0.52,0.41-0.76
				c0.02-0.18,0.01-0.49-0.04-0.94c-0.07-0.45-0.09-0.87-0.05-1.25l0.36-2.37l0.82-5.35c0.41-1.65,0.66-2.74,0.75-3.25
				c0.09-0.51,0.24-1.51,0.45-2.99c0.09-0.68,0.59-4.36,1.49-11.04l0.41-3.57c0.12-0.32,0.19-0.57,0.2-0.75
				c0.04-0.35-0.37-0.68-1.21-0.98l-2.17-0.11c-0.38-0.01-0.55-0.16-0.53-0.45c0.01-0.04,0.15-0.28,0.44-0.7l0.35-0.47
				c0.01-0.07-0.1-0.28-0.31-0.63c-0.08-0.1-0.2-0.49-0.35-1.17c-0.17-0.62-0.24-0.96-0.24-1.03l0.27-1.05
				c0.09-0.93,0.21-1.51,0.37-1.74c0.23-0.27,0.46-0.39,0.7-0.36c0.2,0.02,0.63,0.21,1.28,0.59c0.42,0.24,0.94,0.39,1.56,0.45
				c0.98,0.09,2.23,0.15,3.76,0.19c1.49,0.03,2.85,0.1,4.1,0.19c1.08,0.08,2.44,0.07,4.05-0.04c0.88-0.07,1.71-0.07,2.51,0
				c0.53,0.05,0.97,0.14,1.31,0.26c0.45,0.16,0.71,0.23,0.78,0.24l1.4,0c0.22,0,0.34,0.29,0.35,0.87c-0.01,0.62,0.05,1.11,0.19,1.46
				c0.23,0.46,0.33,0.76,0.32,0.9c0,0.02-0.19,0.37-0.57,1.05l-0.28,0.47c-0.01,0.07,0.12,0.3,0.37,0.7
				c0.23,0.41,0.32,0.77,0.29,1.11c-0.03,0.31-0.41,0.67-1.14,1.09l-0.51,0.42c-0.48-0.6-1.46-0.98-2.94-1.12
				c-0.66-0.06-2.21,0.05-4.62,0.36c-0.34,0.04-0.78,0.03-1.34-0.03c-0.66-0.06-1.01,0.08-1.05,0.44c0,0.02,0.02,0.07,0.06,0.14
				c0.15,0.26,0.22,0.49,0.2,0.69l-0.28,0.81l-0.32,1.98l-0.77,3.51l-0.54,2.49c-0.06,0.17-0.1,0.31-0.11,0.42
				c-0.01,0.07,0.02,0.15,0.08,0.24c0.07,0.16,0.11,0.26,0.11,0.28l-0.21,0.55l0.09,0.05c0.54,0.23,0.88,0.35,1.03,0.37
				c0.11,0.01,0.27,0.01,0.47-0.02c0.79-0.1,1.98-0.13,3.56-0.09l1.92-0.15l1.09,0.17l1.04,0c0.29,0.03,0.52,0.22,0.71,0.57
				c0.21,0.36,0.3,0.69,0.27,1c-0.02,0.2,0.04,0.34,0.16,0.42l-0.06-0.01c-0.21,0.29-0.31,0.45-0.31,0.48
				c0,0.02,0.03,0.07,0.08,0.14c0.09,0.16,0.14,0.29,0.13,0.38c-0.01,0.13-0.19,0.45-0.53,0.95c-0.31,0.46-0.49,0.89-0.52,1.29
				c-0.03,0.26,0.17,0.71,0.58,1.33c0.21,0.33,0.31,0.61,0.29,0.83c-0.02,0.18-0.12,0.36-0.32,0.54c-0.22,0.2-0.42,0.3-0.6,0.28
				c-0.13-0.01-0.4-0.15-0.79-0.41c-0.32-0.21-0.71-0.34-1.17-0.38c-0.38-0.04-0.81-0.06-1.3-0.06c-1.95,0.04-3,0.07-3.16,0.1
				c-0.78,0.15-1.23,0.21-1.36,0.2l-2.11-0.34c-0.3,0.11-0.46,0.26-0.48,0.46l-0.11,2.16c-0.01,0.16-0.1,0.63-0.27,1.42
				c-0.12,0.54-0.2,1.04-0.25,1.48c-0.04,0.42-0.15,2.35-0.32,5.8c0.02,1.6,0.04,2.46,0.05,2.55c0.01,0.13,0.16,0.47,0.44,1.02
				c0.14,0.43,0.2,0.66,0.2,0.69c-0.02,0.24-0.14,0.45-0.36,0.63c-0.12,0.11-0.26,0.15-0.42,0.13c-0.05,0-0.12-0.03-0.23-0.06
				c-0.02,0-0.04,0-0.07-0.01L81.08,306.32z"/>
			<path class="st4" d="M100.88,289.46c-0.12,0.41-0.3,1.04-0.52,1.89c-0.85,2.99-1.8,5.27-2.87,6.85
				c-1.02,1.54-1.56,2.36-1.61,2.47c-0.32,0.64-0.57,0.96-0.75,0.94c-0.02,0-0.1-0.07-0.22-0.22c-0.1-0.14-0.14-0.28-0.13-0.41
				c0.01-0.16,0.09-0.46,0.24-0.89c0.09-0.24,0.14-0.55,0.17-0.92c0.03-0.35,0.03-0.72-0.01-1.1c-0.02-0.36-0.02-0.6-0.01-0.74
				c0.01-0.13,0.18-0.72,0.51-1.76c0.18-0.52,0.38-1.34,0.61-2.45c0.28-1.47,0.51-2.5,0.72-3.08c0.09-0.33,0.15-0.59,0.17-0.79
				c0.02-0.18-0.16-0.66-0.52-1.45c-0.26-0.62-0.36-1.16-0.3-1.63l0.27-2.15l0.21-1.69l0.37-2.45c-0.02-0.29-0.02-0.51-0.01-0.67
				c0.01-0.18,0.28-0.41,0.79-0.7l0.89-0.63l1.11-0.54l0.25-0.15c0.07,0.01,0.2,0.11,0.41,0.3c0.14,0.14,0.39,0.25,0.74,0.33
				c0.66,0.15,1.03,0.3,1.13,0.46c0.02,0.07,0.04,0.45,0.07,1.14c0,0.05-0.15,0.32-0.44,0.83l-0.23,0.69
				c-0.27,0.89-0.41,1.34-0.41,1.37l0.17,0.75l-0.11,0.49c0.03,0.23,0.26,0.35,0.71,0.39c0.57,0.05,1.31-0.08,2.2-0.39
				c0.75-0.23,1.35-0.61,1.8-1.16c0.19-0.23,0.43-0.35,0.7-0.38c0.09-0.01,0.4-0.04,0.94-0.09c0.11-0.01,0.33,0.16,0.66,0.53
				c0.49,0.51,0.94,0.84,1.35,0.98l1.07,0.42c0.3,0.14,0.56,0.37,0.78,0.7c0.32,0.47,0.46,0.84,0.44,1.11
				c-0.01,0.11-0.32,0.39-0.94,0.82c-0.07,0.04-0.14,0.21-0.21,0.52c-0.31,1.02-0.52,1.67-0.62,1.95c-0.11,0.24-0.22,0.58-0.32,1.01
				c0,0.04-0.11,0.28-0.32,0.71c-0.13,0.23-0.2,0.45-0.22,0.65l-0.08,0.93c-0.02,0.27-0.2,0.81-0.53,1.63
				c-0.11,1.06-0.27,2.02-0.47,2.87c-0.27,1.1-0.43,2.01-0.49,2.73c-0.05,0.64,0.01,1.36,0.19,2.16c0.14,0.66,0.47,1.08,0.96,1.28
				c0.11,0.05,0.54,0.14,1.28,0.27l0.65,0.19c0.18,0.01,0.49-0.3,0.95-0.96l1.05-0.98c0.76-1.09,1.22-1.65,1.37-1.66
				c0.2-0.01,0.29,0.18,0.26,0.55l-0.21,1.69c-0.07,0.93-0.14,1.5-0.19,1.7c-0.05,0.21-0.17,0.44-0.34,0.69
				c-0.73,0.99-2.28,2.27-4.66,3.83c-1.08,0.71-1.9,1.05-2.46,1c-0.02,0-0.53-0.17-1.53-0.49c-1.34-0.47-2.4-1.36-3.19-2.67
				c-0.28-0.47-0.53-1.02-0.76-1.67c-0.33-0.94-0.47-1.62-0.44-2.04l0.45-3.84l0.13-1.16l0.53-1.89l0.7-2.45
				c0.29-1.06,0.51-1.76,0.68-2.08c0.14-0.3,0.21-0.52,0.22-0.65c0.03-0.26-0.1-0.53-0.37-0.8c-0.26-0.29-0.42-0.44-0.46-0.44
				c-0.05,0-0.22,0.08-0.52,0.26c-0.31,0.18-0.63,0.24-0.98,0.19l-0.2-0.01C101.06,289.5,100.97,289.49,100.88,289.46z"/>
			<path class="st4" d="M118.72,283.36c0.54-0.01,0.84-0.03,0.91-0.07l2.47-0.86c0.62-0.23,1.78-0.29,3.49-0.19l2.14-0.09
				c0.55,0.04,1.19,0.53,1.9,1.47c0.47,0.59,1,1.15,1.59,1.67c0.21,0.19,0.45,0.74,0.72,1.62c0.45,1.5,0.63,2.94,0.54,4.31
				c-0.14,1.99-0.8,3.9-1.96,5.7c-0.15,0.26-0.72,0.83-1.7,1.71c-0.99,0.88-1.61,1.37-1.86,1.49c-0.88,0.41-1.4,0.61-1.58,0.59
				c-0.11-0.01-0.22-0.01-0.33-0.02c-0.41,0.22-0.72,0.31-0.92,0.3c-0.11-0.01-0.72-0.13-1.81-0.36c-0.34-0.09-0.58-0.14-0.69-0.15
				c-0.38-0.03-0.59,0.23-0.62,0.76c-0.08,1.17,0.2,2.31,0.86,3.4c0.62,1,1.45,1.54,2.5,1.61c1.37,0.1,2.89-0.32,4.56-1.25
				c0.32-0.2,0.91-0.73,1.75-1.58c0.17-0.17,0.5-0.45,0.99-0.84c0.66-0.51,1.09-0.95,1.29-1.31c0.33-0.54,0.62-0.92,0.88-1.15
				c0.26-0.25,0.42-0.37,0.46-0.36c0.2,0.01,0.29,0.17,0.27,0.45c0,0.07-0.03,0.21-0.06,0.43c-0.06,0.24-0.1,0.47-0.11,0.69
				c-0.02,0.31-0.02,0.66-0.01,1.07c0.02,0.4,0.01,0.73,0,1c-0.03,0.4-0.24,0.88-0.64,1.43c-0.87,1.23-1.97,2.24-3.31,3.01
				c-0.63,0.35-1.51,1.05-2.65,2.08c-0.5,0.43-1.41,0.82-2.75,1.16c-1.34,0.34-2.48,0.48-3.43,0.41c-1.35-0.1-2.74-0.89-4.18-2.4
				c-0.85-0.9-1.44-1.61-1.76-2.13c-0.94-1.53-1.33-3.4-1.18-5.59c0.12-1.7,0.36-3.71,0.72-6.02c0.28-1.76,1.02-4.57,2.22-8.43
				C117.86,285.48,118.3,284.29,118.72,283.36z M125.46,284.86c-0.45,0.01-1.05,1.24-1.82,3.68c-1.4,4.38-2.14,7.23-2.23,8.56
				c-0.01,0.18,0.01,0.31,0.07,0.41c0.02,0.04,0.19,0.11,0.52,0.2c0.11,0.01,0.26,0.08,0.45,0.23c0.23,0.15,0.44,0.23,0.61,0.24
				c0.78,0.06,1.55-0.83,2.32-2.64c0.96-2.23,1.5-4.29,1.63-6.2c0.1-1.4,0-2.55-0.29-3.46c-0.09-0.27-0.36-0.52-0.79-0.72
				L125.46,284.86z"/>
			<path class="st4" d="M134.46,305.14c-0.21,0.19-0.48,0.38-0.8,0.59c-0.14,0.06-0.4,0.34-0.78,0.86
				c-0.34,0.47-0.69,0.77-1.05,0.91c-0.39,0.13-0.62,0.26-0.72,0.39c-0.03,0.05-0.05,0.07-0.07,0.06l-0.12-0.17
				c-0.11-0.1-0.16-0.21-0.15-0.34l0.05-1.03l0.08-1.3c0.03-0.48,0.51-1.16,1.45-2.02c0.45-0.42,0.93-1.06,1.44-1.92
				c0.22-0.32,0.36-0.66,0.43-1.01c0.03-0.25,0.17-0.72,0.41-1.41c1.79-5.37,2.7-8.18,2.71-8.42l0.01-2.6
				c0.01-0.16,0.1-0.41,0.28-0.76c0.2-0.32,0.29-0.5,0.3-0.54l-0.2-1.75c-0.04-0.2,0.46-0.35,1.49-0.45
				c0.09-0.02,0.39-0.21,0.9-0.58c0.81-0.56,1.36-0.8,1.64-0.74l0.59,0.13l1.47-0.02l0.63,0.13c0.81,0.16,1.29,0.31,1.44,0.45
				c0.34,0.33,0.44,1.35,0.3,3.05c-0.08,1.06,0.12,2.28,0.6,3.64c0.38,1.07,0.6,1.92,0.66,2.54c0.05,0.71,0.11,1.14,0.2,1.28
				c0.02,0.07,0.28,0.46,0.8,1.18c0.29,0.39,0.64,1.64,1.06,3.73c0.18,0.81,0.25,1.54,0.21,2.18c-0.01,0.13-0.14,1.2-0.41,3.18
				c-0.19,1.34-0.92,2.75-2.17,4.22c-0.62,0.69-1.28,1.26-1.97,1.69c-0.68,0.38-1.83,0.92-3.42,1.61c-0.73,0.31-1.3,0.59-1.72,0.83
				c-0.79,0.47-1.3,0.7-1.54,0.68c-0.22-0.01-0.81-0.37-1.78-1.07c-1-0.72-1.68-1.66-2.04-2.81c-0.34-1.13-0.48-2.04-0.44-2.73
				c0.01-0.2,0.05-0.5,0.11-0.9c0.03-0.13,0.06-0.27,0.09-0.43C134.41,305.4,134.43,305.29,134.46,305.14z M136.12,302.33
				c0.07-0.04,0.16-0.08,0.27-0.12c0.18-0.07,0.59-0.3,1.21-0.67l1.14-0.6c0.11,0.05,0.17,0.09,0.19,0.11c0.02,0,0.04,0.2,0.03,0.6
				l0.2,0.55l-0.24,0.72l-0.52,1.51l-0.32,0.95c-0.03,0.55,0.39,1.3,1.25,2.24c0.5,0.58,0.93,0.88,1.28,0.91
				c0.62,0.03,1.35-0.44,2.18-1.41c0.5-0.58,0.77-1.27,0.82-2.09c0.04-0.82-0.02-1.4-0.2-1.75l-0.3-0.65
				c-0.22-0.44-0.4-1.13-0.55-2.06l-0.95-2.69l-0.38-2.16c-0.36-1.2-0.52-2.01-0.5-2.43c0.01-0.2,0.04-0.43,0.1-0.69
				c0.06-0.18,0.08-0.33,0.09-0.46c0.01-0.11-0.06-0.29-0.2-0.55l-0.07-0.07c-0.02,0.06-0.07,0.1-0.14,0.12
				c-0.16,0.06-0.27,0.28-0.34,0.65c-0.18,0.84-0.61,2.15-1.29,3.94c-0.71,1.83-1.18,2.99-1.42,3.51
				C137.24,300.23,136.79,301.1,136.12,302.33z"/>
			<path class="st4" d="M158.22,301.56c0.27-0.68,0.48-1.2,0.63-1.54c0.98-2.43,1.95-4.93,2.88-7.49c1.24-3.11,1.86-4.79,1.87-5.06
				c0.01-0.16-0.03-0.33-0.11-0.51c-0.12-0.31-0.18-0.53-0.17-0.64c0-0.13,0.15-0.28,0.42-0.45c1.32-0.79,2.58-1.16,3.78-1.11
				c0.38,0.01,0.76,0.11,1.16,0.28c0.17,0.07,0.29,0.11,0.36,0.11c0.07,0.01,0.35-0.06,0.84-0.19l0.07-0.06
				c0.02,0,0.07,0.03,0.13,0.1c0.02,0.02,0.13,0.13,0.32,0.34c0.17,0.16,0.41,0.63,0.71,1.39c0.12,0.25,0.24,0.46,0.34,0.62
				c0.21,0.3,0.32,0.47,0.31,0.51l-0.23,0.72l-0.04,0.87l-0.63,0.84c-0.33,0.45-0.77,1.78-1.33,3.98c-0.64,2.51-0.99,4.65-1.07,6.43
				c-0.1,2.24,0.02,3.52,0.34,3.85c0.77,0.77,1.19,1.15,1.25,1.15c0.11,0.01,0.56-0.26,1.33-0.81c0.48-0.36,1.3-1.46,2.44-3.3
				c0.22-0.37,0.41-0.55,0.59-0.54c0.04,0,0.11,0.08,0.19,0.24c0.06,0.14,0.09,0.25,0.09,0.34c0,0.09-0.03,0.24-0.09,0.46
				c-0.08,0.24-0.12,0.53-0.13,0.86c-0.01,0.27,0,0.54,0.03,0.8c0.05,0.56,0.07,0.97,0.05,1.24c-0.01,0.31-0.32,0.79-0.93,1.42
				c-0.26,0.41-0.6,0.76-1.01,1.03c-0.14,0.08-0.37,0.27-0.69,0.57c-1.87,1.77-3.57,2.62-5.11,2.56c-1.11-0.05-2.05-0.48-2.81-1.29
				c-1.36-1.43-2-3.32-1.9-5.65c0.02-0.64,0.1-1.4,0.22-2.26c0.26-1.95,0.52-3.19,0.79-3.74c0.09-0.18,0.15-0.3,0.15-0.39
				c0-0.09-0.05-0.21-0.15-0.38l-0.63,0.58l-1.21,3.35l-1.66,3.9l-0.63,2.25l-0.39,1.35c-0.38,2.65-0.62,4.04-0.74,4.17
				c-0.07,0.09-0.29,0.14-0.64,0.18c-0.18,0.02-0.61,0.18-1.29,0.51c-0.11,0.06-0.19,0.09-0.24,0.09c-0.35-0.01-0.92-0.42-1.69-1.23
				c-0.63-0.36-0.99-0.59-1.07-0.71c-0.7-0.9-0.96-3.35-0.8-7.37c0.04-1.06,0.14-2.05,0.29-2.95c0.28-1.93,0.42-2.96,0.43-3.12
				l-0.06-4.9l0.21-1.12c0.08-0.46,0.27-3,0.55-7.61c0.09-1.67,0.28-3.52,0.56-5.58c0.29-2.12,0.52-3.48,0.7-4.08
				c0.1-0.35,0.16-0.6,0.17-0.76c0.01-0.25-0.07-0.49-0.24-0.74c-0.17-0.25-0.25-0.4-0.25-0.45l0.23-0.79l-0.14-0.54
				c0-0.02,0.04-0.09,0.11-0.2c0.09-0.13,0.14-0.24,0.14-0.33c0.01-0.13-0.04-0.34-0.14-0.64c-0.07-0.16-0.09-0.29-0.09-0.4
				c0.02-0.42,0.21-0.76,0.58-1.01c0.2-0.15,0.91-0.27,2.11-0.38c0.38-0.05,0.92-0.14,1.61-0.27c0.51-0.11,0.94-0.16,1.27-0.15
				c0.47,0.02,0.81,0.19,1.05,0.51c0.04,0.07,0.15,0.4,0.33,0.98c0,0.05,0.1,0.19,0.31,0.45c0.59,0.74,0.91,1.52,0.97,2.34l0.04,0.6
				c0,0.09-0.09,0.28-0.26,0.56c-0.02,0.04-0.04,0.22-0.05,0.53c-0.03,0.22-0.2,0.54-0.51,0.95c-0.02,0.05-0.13,0.4-0.31,1.06
				c-0.02,0.02-0.16,0.36-0.41,1.02l-0.68,4.44l-0.88,5.23l-0.83,7.23c-0.51,3.8-0.77,5.72-0.77,5.77l0.03,0.87l-0.02,0.4l0.03,0.23
				L158.22,301.56z"/>
			<path class="st4" d="M206.18,311.9c2.35,0.1,3.96,0.26,4.83,0.47c0.27,0.07,0.46,0.16,0.56,0.27c0,0.02,0.07,0.26,0.2,0.7
				l1.06,0.8c0.22,0.18,0.42,0.61,0.59,1.3c0.22,0.76,0.45,1.39,0.69,1.9c0.18,0.4,0.26,0.72,0.26,0.96c0,0.29-0.12,0.44-0.34,0.43
				c-0.18,0-0.37-0.08-0.6-0.23c-0.75-0.49-1.35-0.74-1.79-0.75c-0.49,0-1.24,0.15-2.24,0.45c-0.73,0.22-2.83,0.57-6.3,1.06
				c-4,0.93-6.58,1.39-7.74,1.39c-0.75-0.01-1.52-0.38-2.29-1.11c-0.66-0.63-1.04-1.16-1.12-1.61c-0.06-0.38-0.26-0.68-0.59-0.9
				c-0.8-0.6-1.19-1.08-1.19-1.44c0-0.2,0.1-0.37,0.31-0.49c0.29-0.22,0.61-0.33,0.97-0.33c0.07,0,0.14,0.02,0.24,0.04
				c0.53,0.07,0.85,0.1,0.96,0.1c0.4-0.02,1.17-0.2,2.3-0.55c0.09-0.04,1.31-0.35,3.67-0.91c-0.69-0.25-1.84-0.57-3.46-0.96
				c-0.65-0.16-1.16-0.51-1.56-1.04c-0.26-0.33-0.6-0.58-1-0.74c-0.69-0.27-1.42-1.02-2.18-2.25c-0.44-0.72-0.72-1.17-0.86-1.37
				c-0.88-1.27-1.42-2.11-1.62-2.52c-0.2-0.41-0.37-1.05-0.52-1.92c-0.09-0.57-0.17-2.13-0.24-4.66l-0.08-3.36l0.45-2.76l-0.05-2.1
				c0-0.67,0.25-1.8,0.75-3.39c0.81-2.53,1.42-4.76,1.8-6.69c0.46-2.13,0.79-3.5,0.99-4.13c0.11-0.33,0.17-0.54,0.17-0.63
				l-0.06-0.77l0.14-0.73c0-0.09-0.06-0.22-0.17-0.4c-0.04-0.09-0.06-0.16-0.07-0.2l0.07-0.2l0.07-0.2l0.57-0.53l0.94-0.89
				l0.13-0.07c0.09-0.07,0.14-0.1,0.16-0.1c0.02,0,0.07,0.02,0.13,0.07c0.11,0.09,0.21,0.13,0.3,0.13c0.29,0,0.76-0.11,1.43-0.32
				c0.22-0.06,0.4-0.09,0.53-0.1c0.15,0,0.33,0.04,0.53,0.1c0.18,0.07,0.3,0.1,0.36,0.1c0.18,0,0.7-0.37,1.58-1.13
				c0.51-0.44,0.84-0.65,1-0.63l0.96,0.14c0.02,0,0.36-0.14,1.04-0.42c0.29-0.11,0.59-0.16,0.9-0.16c0.8,0.01,2.23,0.15,4.29,0.43
				c0.6,0.09,1.67,0.64,3.22,1.62c2.19,1.39,3.84,4,4.95,7.82c0.89,3.14,1.33,6.37,1.31,9.7c-0.01,2.05-0.24,5.03-0.69,8.96
				c-0.09,0.91-0.36,1.66-0.81,2.26c-0.2,0.29-0.32,0.49-0.37,0.6c-0.11,0.29-0.3,1.23-0.55,2.83c-0.21,1.18-1.05,2.87-2.53,5.08
				C209.5,309.56,208.02,310.89,206.18,311.9z M203.18,273.24c-0.89-0.01-1.67,0.45-2.34,1.38c-1.46,1.92-2.31,3.89-2.57,5.91
				c-0.09,0.69-0.21,1.12-0.34,1.3c-0.06,0.09-0.3,0.22-0.7,0.4l-0.24,0.77c-0.5,1.55-0.8,2.5-0.9,2.86
				c-0.1,0.35-0.19,0.82-0.26,1.39c-0.72,4.84-1.08,7.99-1.09,9.46c-0.03,5.02,0.44,8.47,1.4,10.37c0.77,1.51,1.44,2.27,2.02,2.27
				c0.18,0,0.58-0.14,1.2-0.42c0.2-0.11,0.34-0.16,0.4-0.16c0.02,0,0.04,0,0.07,0c0.42,0.16,0.69,0.24,0.8,0.24
				c0.53,0,1.14-0.26,1.84-0.79c1.32-0.97,2.48-2.93,3.5-5.87c0.84-2.44,1.47-5.77,1.89-9.98c0.26-2.68,0.4-4.85,0.41-6.49
				c0.01-0.78-0.2-2.41-0.6-4.9c-0.28-1.84-0.45-2.95-0.52-3.32c-0.06-0.37-0.18-0.74-0.36-1.12c-0.68-1.42-1.57-2.43-2.68-3.01
				C203.75,273.33,203.44,273.24,203.18,273.24z"/>
			<path class="st4" d="M230.73,307.31c-1.5,2.86-2.67,4.72-3.49,5.56c-0.34,0.35-0.89,0.71-1.65,1.09
				c-0.76,0.39-1.33,0.58-1.7,0.59c-0.24,0.01-0.55-0.1-0.91-0.34c-0.23-0.13-0.62-0.21-1.17-0.27c-0.36-0.04-1.01-0.96-1.97-2.78
				c-0.94-1.84-1.39-3.48-1.36-4.93c0.07-2.49,0.11-4.16,0.13-5c0.04-0.92,0.16-1.81,0.36-2.68l-0.15-3.06
				c-0.02-0.67,0.13-1.42,0.44-2.28c0.18-0.47,0.28-0.85,0.27-1.14c0-0.11-0.15-0.39-0.42-0.82l0.07-1.11l-0.07-2.43
				c-0.01-0.36,0.2-0.78,0.64-1.28c0.5-0.54,0.94-0.82,1.34-0.83c0.11,0,0.3,0.05,0.57,0.15c0.25,0.11,0.47,0.16,0.67,0.15
				c0.16,0,0.58-0.21,1.28-0.63l0.43-0.21c0.04-0.04,0.08-0.07,0.1-0.07c0.02,0,0.05,0.02,0.07,0.06c0.14,0.18,0.41,0.32,0.81,0.44
				c0.18,0.04,0.67,0.61,1.48,1.7c0.28,0.37,0.42,0.6,0.42,0.69c0,0.03-0.09,0.37-0.27,1.04l-0.22,0.64l0.12,0.8
				c0,0.07-0.08,0.21-0.26,0.44c-0.36,0.48-0.54,1.51-0.52,3.08c0.02,0.67-0.22,2.68-0.71,6.06c-0.22,1.63-0.31,3.22-0.27,4.77
				c0.04,1.51,0.35,2.72,0.93,3.64c0.28,0.46,0.5,0.65,0.65,0.58c0.42-0.19,0.67-0.33,0.76-0.42c0.02-0.03,0.53-1.02,1.52-2.97
				c0.42-0.81,0.74-2.6,0.96-5.36c0.22-2.63,0.35-4.08,0.38-4.37c0.3-1.92,0.44-3.29,0.42-4.11c-0.01-0.18-0.05-0.38-0.15-0.6
				c-0.1-0.28-0.14-0.44-0.15-0.46l0.02-0.84l-0.25-0.36c-0.14-0.2-0.21-0.36-0.21-0.49c-0.02-0.49,0.19-1,0.62-1.55
				c0.17-0.25,0.32-0.36,0.46-0.34l0.84,0.08c0.62-0.02,1.11,0.03,1.47,0.13c0.72,0.17,1.27,0.26,1.67,0.25
				c0.22-0.01,0.52-0.07,0.9-0.19c0.13-0.05,0.23-0.07,0.3-0.07c0.4-0.01,0.61,0.13,0.62,0.42c0,0.13-0.02,0.25-0.06,0.37
				c-0.04,0.15-0.06,0.26-0.06,0.3c0,0.2,0.28,0.69,0.84,1.48l0.25,0.49c0,0.03-0.09,0.21-0.28,0.58l-0.29,0.37
				c-0.09,0.11-0.13,0.69-0.12,1.74c0,0.12-0.18,1.15-0.56,3.12c-0.32,1.76-0.48,3.28-0.44,4.54l-0.19,2.87
				c0.01,0.6,0.32,1.43,0.9,2.48c0.49,0.9,0.99,1.34,1.5,1.32c0.38-0.01,0.81-0.29,1.31-0.84c0.24-0.25,0.61-0.83,1.12-1.73
				c0.44-0.76,0.75-1.37,0.92-1.82c0.15-0.38,0.3-0.58,0.45-0.61c0.04-0.02,0.09-0.05,0.13-0.1l0.04,0.06
				c0.18,0.17,0.28,0.34,0.28,0.5l0.02,1.96c0.01,1.35-0.01,2.12-0.08,2.3c-0.04,0.09-0.32,0.43-0.84,1.02
				c-0.38,0.48-0.86,0.94-1.43,1.38c-0.24,0.2-0.46,0.4-0.65,0.58l-0.97,1.02l-1.25,0.66c-0.73,0.4-1.19,0.6-1.39,0.61
				c-0.48,0.01-1.2-0.24-2.15-0.74c-1.01-0.53-1.85-1.64-2.49-3.33C231.02,308.12,230.92,307.81,230.73,307.31z"/>
			<path class="st4" d="M254.08,306.33c-0.36,0.6-0.99,1.84-1.87,3.72c-0.34,0.66-0.98,1.43-1.93,2.29
				c-0.95,0.86-1.65,1.3-2.12,1.33c-0.31,0.02-0.86-0.11-1.66-0.4c-1.39-0.49-2.48-1.47-3.28-2.93c-0.8-1.44-1.26-3.09-1.37-4.96
				c-0.11-1.75,0.06-4.78,0.51-9.08c0.34-3.16,0.84-5.39,1.49-6.7c0.34-0.66,0.88-1.53,1.64-2.6c0.45-0.67,0.84-1.09,1.19-1.28
				c2-1.07,3.21-1.63,3.63-1.65c0.62-0.04,1.46,0.26,2.53,0.91c0.37,0.22,0.68,0.49,0.92,0.81c0.21,0.25,0.35,0.38,0.39,0.38
				c0.48-0.12,0.78-0.2,0.89-0.22c0.35,0.29,0.64,0.51,0.88,0.65c0.23,0.1,0.93,0.13,2.11,0.1c1.02-0.02,1.77,0.2,2.24,0.66
				c0.09,0.08,0.22,0.39,0.39,0.91l0.32,0.35l0.08,0.2l0.04,0.1l-0.06,0.14l-0.24,0.51l-0.29,0.65l0.17,1.13
				c0.01,0.13-0.05,0.37-0.19,0.71c-0.32,0.89-0.52,1.99-0.6,3.3c-0.07,2.03-0.2,3.54-0.39,4.53c-0.06,0.42-0.09,0.77-0.07,1.04
				c0.03,0.51,0.2,1.28,0.51,2.3c0.47,1.46,1,2.18,1.6,2.14c0.29-0.02,0.68-0.35,1.17-1.01c1.42-1.85,2.31-3.24,2.68-4.2
				c0.18-0.5,0.35-0.76,0.48-0.76c0.05,0,0.12,0.06,0.21,0.19c0.1,0.15,0.15,0.27,0.15,0.36c0.01,0.16-0.02,0.41-0.08,0.77
				c-0.05,0.28-0.07,0.55-0.05,0.84c0.01,0.26,0.06,0.53,0.12,0.8c0.09,0.35,0.14,0.56,0.14,0.62c0.02,0.44-0.09,0.82-0.33,1.15
				c-1.45,2.12-2.27,3.27-2.46,3.46c-0.17,0.17-0.46,0.29-0.87,0.39c-0.04,0-0.38,0.31-1.01,0.93c-0.29,0.31-0.77,0.56-1.42,0.76
				c-0.59,0.15-0.97,0.28-1.14,0.4c-0.16,0.07-0.25,0.11-0.29,0.12l-2.21-0.7C255.83,309.23,254.99,308.18,254.08,306.33z
				 M251.78,288.04c-0.25-0.01-0.43,0.06-0.54,0.2c-0.11,0.14-0.26,0.47-0.42,0.99c-0.54,1.25-0.94,2.55-1.2,3.88
				c-0.68,3.69-1.09,6.04-1.22,7.03c-0.13,1-0.15,2.14-0.07,3.43c0.1,1.68,0.44,2.98,1,3.87c0.25,0.37,0.49,0.54,0.74,0.52
				c0.2-0.01,0.4-0.23,0.63-0.67c0.3-0.57,0.69-1.14,1.16-1.71l0.1-0.54l0.37-1.03c0.48-1.92,0.72-3.19,0.7-3.81l0.15-0.81
				l0.02-1.34c0.09-0.27,0.13-0.56,0.11-0.88c-0.02-0.4,0.02-0.91,0.14-1.54c0.23-1.28,0.34-2.39,0.33-3.33
				c0.13-0.76,0.19-1.22,0.18-1.38c-0.06-1-0.25-1.74-0.57-2.24c-0.07-0.11-0.38-0.19-0.91-0.24
				C252.1,288.18,251.87,288.03,251.78,288.04z"/>
			<path class="st4" d="M271.71,298.76c-0.02,0.69-0.02,1.21,0.01,1.54c0.15,1.59,0.77,2.94,1.83,4.04
				c0.62,0.65,1.24,0.95,1.83,0.89c0.26-0.02,0.55-0.17,0.86-0.45c0.21-0.18,0.51-0.3,0.91-0.35c0.35-0.08,1.24-1.06,2.66-2.93
				c0.52-0.66,0.83-1.09,0.95-1.3c0.08-0.14,0.31-0.71,0.71-1.71c0.17-0.47,0.37-0.7,0.56-0.72c0.04-0.01,0.18,0.1,0.4,0.33
				l-0.02,1.57c0.01,0.09,0.09,0.34,0.24,0.75c0.03,0.13,0.05,0.23,0.06,0.3l-0.02,0.53l-0.03,0.74l-0.36,0.74
				c-0.62,1.26-0.96,1.96-1.04,2.11c-0.06,0.09-0.45,0.62-1.18,1.59c-1.02,1.61-1.77,2.63-2.22,3.03c-0.31,0.25-0.88,0.5-1.7,0.73
				l-2.67,0.79c-0.82,0.03-2.14-0.46-3.96-1.49c-1.46-0.84-2.62-2.6-3.49-5.28c-0.16-0.54-0.39-2.2-0.68-4.96l-1.15-10.93
				c-0.08-0.75-0.08-3.5-0.03-8.23c0.05-2.9,0.19-5.3,0.41-7.17c0.22-1.83,0.31-3.05,0.25-3.67c-0.05-0.49-0.02-0.81,0.11-0.98
				c0.1-0.14,0.44-0.35,1.04-0.63c1.72-0.9,2.77-1.37,3.14-1.41c0.18-0.01,0.38,0,0.61,0.05c0.84,0.16,1.33,0.22,1.45,0.19
				l0.95-0.19c0.07-0.01,0.23,0.11,0.51,0.35c1,0.37,1.6,0.63,1.83,0.76c0.23,0.13,0.45,0.38,0.69,0.73
				c0.76,1.11,1.39,2.54,1.92,4.27c0.56,1.87,0.91,3.52,1.05,4.96c0.23,2.39-0.07,5.37-0.91,8.96
				C276.33,290.09,274.49,294.25,271.71,298.76z M271.1,293.42c2.38-4.56,3.3-9.51,2.78-14.86c-0.27-2.85-0.71-5.2-1.32-7.03
				c-0.34-1-0.69-1.46-1.04-1.41c-0.38,0.06-0.65,1.4-0.82,4.03c-0.08,1.21-0.1,5.12-0.04,11.72
				C270.72,288.43,270.86,290.95,271.1,293.42z"/>
			<path class="st4" d="M285.27,276.87l-1.11,0.3c-0.35,0.04-1.02-0.24-2.01-0.83c-1.25-0.77-1.94-1.62-2.04-2.54
				c-0.08-0.62,0.05-1.44,0.38-2.46c0.21-0.65,0.44-1.12,0.67-1.42c0.06-0.07,0.33-0.21,0.82-0.4l1.18-0.51l0.98,0.05
				c0.81,0.01,1.3,0.06,1.49,0.13c0.48,0.23,0.99,0.64,1.55,1.22c0.13,0.12,0.28,0.55,0.45,1.29c0.08,0.28,0.18,0.55,0.3,0.8
				c0.08,0.15,0.13,0.27,0.14,0.35c0.03,0.2-0.26,0.9-0.86,2.12c-0.36,0.93-0.58,1.45-0.65,1.55c-0.21,0.18-0.4,0.28-0.61,0.3
				L285.27,276.87z M288.78,306.55l-0.95,0.25c-0.22,0.03-0.63-0.11-1.25-0.42c-1.4-0.66-2.52-1.8-3.36-3.42
				c-0.54-1.03-0.88-2.04-1-3.04c-0.08-0.64-0.13-1.53-0.15-2.67c-0.01-1.63-0.09-3.05-0.24-4.27c-0.07-0.64-0.08-1.35-0.02-2.14
				c-0.2-2.08-0.21-3.57-0.03-4.49c0.09-0.5,0.13-0.86,0.11-1.08c-0.05-0.4-0.17-0.74-0.36-1.04c-0.01-0.04-0.19-0.14-0.54-0.3
				c-0.02-0.02-0.04-0.05-0.04-0.1c-0.01-0.06,0.02-0.18,0.1-0.34c0.03-0.07,0.05-0.12,0.05-0.14c-0.01-0.04-0.02-0.08-0.05-0.13
				c-0.06-0.08-0.08-0.15-0.09-0.19c-0.03-0.2,0.3-0.49,0.97-0.85l0.67,0.02c0.06-0.01,0.24-0.14,0.52-0.4
				c0.06-0.05,0.6-0.27,1.64-0.67c0.27-0.1,0.55-0.16,0.81-0.19c0.3-0.04,0.69,0.13,1.13,0.5c0.49,0.41,1.21,0.93,2.16,1.56
				c0.36,0.25,0.56,0.46,0.58,0.64c0.02,0.18-0.03,0.4-0.16,0.66c-0.34,0.71-0.52,1.21-0.55,1.51c-0.04,0.25-0.03,0.88,0.02,1.91
				c0.03,0.67-0.05,2.07-0.24,4.22c-0.16,1.83-0.16,3.46,0.01,4.9c0.15,1.26,0.45,2.39,0.91,3.41c0.18,0.43,0.45,0.74,0.81,0.95
				c0.31,0.16,0.55,0.23,0.73,0.21c0.37-0.04,0.83-0.41,1.38-1.1c0.52-0.67,0.89-1.32,1.11-1.98c0.28-0.86,0.47-1.35,0.56-1.47
				c0.2-0.23,0.31-0.35,0.33-0.38c0.03-0.07,0.06-0.11,0.09-0.11c0.2-0.03,0.33,0.24,0.4,0.79c0.03,0.24,0.03,0.53,0,0.87
				c-0.01,0.29-0.01,0.46,0,0.51l0.31,1.81c0,0.04-0.12,0.39-0.39,1.01l-0.2,0.56l-0.58,0.78l-0.26,0.36l-0.54,0.57l-1.09,1.34
				l-0.65,0.45c-0.92,0.76-1.48,1.13-1.68,1.13L288.78,306.55z"/>
			<path class="st4" d="M300.97,288.6c-0.02,4.64,0.06,7.62,0.24,8.91c0.2,1.45,0.68,2.77,1.45,3.97c0.41,0.68,0.92,0.98,1.54,0.9
				c0.42-0.06,1.01-0.48,1.78-1.25c0.79-0.78,1.59-2.01,2.39-3.69c0.42-0.86,0.74-1.31,0.96-1.34c0.17-0.02,0.29,0.2,0.35,0.65
				l0.17,1.23l0.09,0.86l0.23,1.21c0.01,0.25-0.3,0.77-0.93,1.57l-0.31,0.72l-0.7,1.07c-0.39,0.77-0.68,1.24-0.88,1.4
				c-0.1,0.08-0.42,0.3-0.95,0.67c-0.17,0.09-0.42,0.33-0.78,0.71c-0.64,0.74-1.17,1.24-1.61,1.52c-0.44,0.27-0.99,0.46-1.67,0.55
				c-1.15,0.15-2.15-0.05-3.01-0.6c-0.96-0.61-1.77-1.2-2.43-1.78c-1.07-0.95-1.7-2.13-1.89-3.51c-0.05-0.37-0.09-0.92-0.12-1.63
				c-0.04-0.62-0.22-2.35-0.54-5.18c-0.21-1.92-0.22-3.42-0.04-4.5c0.17-0.87,0.23-1.52,0.17-1.94c-0.04-0.26-0.29-0.53-0.75-0.81
				c-0.29-0.18-0.47-0.48-0.53-0.9c-0.04-0.33-0.01-0.65,0.11-0.96c0.11-0.33,0.16-0.54,0.15-0.63c-0.01-0.07-0.1-0.24-0.27-0.53
				c-0.26-0.42-0.43-0.95-0.52-1.58c-0.08-0.6,0.04-1.09,0.37-1.5c0.11-0.12,0.49-0.24,1.12-0.36c0.16-0.02,0.2-0.6,0.13-1.73
				l0.11-3.45l-0.14-3c0.01-0.58,0.01-0.94-0.01-1.07c-0.03-0.22-0.22-0.4-0.58-0.53c-0.26-0.1-0.41-0.23-0.43-0.41
				c-0.03-0.22,0.27-0.58,0.89-1.1c0.18-0.5,0.38-0.84,0.6-1.03c0.68-0.63,1.03-0.97,1.07-1.02c0.48-0.58,0.83-0.89,1.06-0.92
				c0.02-0.01,0.13,0.03,0.34,0.09c0.19,0.04,0.52,0.07,0.98,0.07c0.52,0.02,0.89,0.08,1.1,0.19c0.03-0.01,0.29,0.17,0.78,0.53
				c0.27,0.19,0.61,0.35,1.01,0.5c0.61,0.21,0.94,0.43,0.96,0.64c0.01,0.11-0.14,0.53-0.47,1.24c-0.28,0.62-0.52,1.96-0.73,4.03
				c-0.21,1.91-0.29,3.18-0.22,3.79c0.08,1.11,0.07,1.82-0.05,2.13c-0.04,0.07-0.05,0.13-0.05,0.17c0.01,0.08,0.06,0.17,0.13,0.25
				c0.08,0.06,0.69,0.06,1.82-0.01c0.85-0.05,1.36,0.07,1.53,0.36c0.11,0.19,0.25,0.48,0.42,0.88c0.17,0.4,0.33,0.68,0.49,0.84
				c0.08,0.06,0.11,0.1,0.11,0.12c0,0.02-0.09,0.19-0.27,0.51l-0.55,0.61l-0.17,0.53c0.04,0.27,0.28,0.53,0.72,0.81
				c0.51,0.31,0.79,0.72,0.84,1.23c0.05,0.67-0.17,1.03-0.66,1.1c-0.13,0.02-0.37,0-0.72-0.07c-0.55-0.13-0.99-0.17-1.3-0.13
				c-0.07,0.01-0.48,0.12-1.23,0.34C301.43,288.44,301.18,288.53,300.97,288.6z"/>
			<path class="st4" d="M321.48,299.63c-1.69,3.22-3.45,4.96-5.27,5.25c-0.95,0.15-1.53,0.22-1.74,0.22c-0.22,0-0.49-0.08-0.82-0.22
				c-2.28-1.02-3.62-2.83-4.03-5.43c-0.25-1.6-0.44-3.43-0.56-5.48c-0.11-1.99-0.23-3.5-0.34-4.54c-0.21-1.45-0.25-2.48-0.12-3.09
				c0.02-0.13,0.03-0.23,0.02-0.27c0-0.04-0.07-0.18-0.19-0.41c-0.37-0.35-0.55-0.57-0.55-0.66l0.1-1.09l0.02-0.95l-0.01-0.54
				c-0.04-0.1-0.2-0.29-0.46-0.56c-0.1-0.1-0.16-0.19-0.18-0.28c-0.03-0.2,0.12-0.46,0.45-0.78c0.14-0.13,0.74-0.36,1.82-0.69
				l1.54-0.51c0.4-0.07,0.96,0.1,1.7,0.51c0.84,0.43,1.28,0.73,1.36,0.9l0.38,0.72l0.88,0.47c0.46,0.26,0.72,0.57,0.75,0.93
				c0.01,0.09-0.03,0.19-0.12,0.32l-0.02,0.04l-0.55-0.05c-0.22,0.04-0.29,0.34-0.2,0.91c0.06,0.53,0.04,1.59-0.07,3.18
				c-0.03,0.55,0.01,1.27,0.11,2.18c-0.16,1.26-0.23,2.12-0.2,2.56c0.02,0.25,0.1,1.06,0.25,2.45l0.19,1.83
				c0.14,0.94,0.59,1.79,1.31,2.53c0.18,0.17,0.49,0.38,0.91,0.63c0.17,0.09,0.27,0.13,0.29,0.13c0.07-0.01,0.13-0.08,0.21-0.2
				c0.08-0.17,0.25-0.41,0.49-0.72c0.59-0.85,0.95-1.53,1.1-2.03c0.35-1.13,0.27-3.72-0.21-7.76c-0.26-2.23-0.37-4.03-0.35-5.41
				c-0.03-1.05,0-1.89,0.08-2.51c0.11-0.72,0.13-1.29,0.06-1.73c-0.04-0.29-0.16-0.62-0.35-0.99c-0.13-0.22-0.2-0.39-0.22-0.5
				c-0.03-0.22,0.06-0.42,0.28-0.58c0.07-0.01,0.2,0.04,0.4,0.14c0.1,0.05,0.16,0.08,0.21,0.07c0.31-0.05,0.99-0.49,2.05-1.33
				c0.3-0.23,0.52-0.35,0.65-0.37c0.37-0.06,1.04,0.15,2.02,0.62c0.81,0.42,1.25,0.84,1.32,1.28c0,0.04-0.02,0.15-0.06,0.31
				c-0.07,0.28-0.09,0.52-0.06,0.71c0.03,0.18,0.11,0.4,0.24,0.67c0.09,0.17,0.15,0.28,0.16,0.34c0.01,0.09,0,0.23-0.04,0.41
				c-0.39,2.13-0.13,6.77,0.77,13.94l0.41,3.44l1.39,6.9c0.17,1.07-0.03,2.87-0.6,5.39c-0.15,0.61-0.37,1.08-0.65,1.42
				c-0.19,0.23-0.38,0.45-0.57,0.66c-0.54,0.58-1.16,1.36-1.86,2.34c-0.86,1.17-1.4,1.89-1.66,2.15c-0.54,0.53-1.1,0.84-1.64,0.93
				c-1.18,0.19-2.71-0.34-4.59-1.57c-1.91-1.25-2.94-2.38-3.1-3.39c-0.07-0.44,0.04-0.95,0.34-1.53c0.11-0.25,0.24-0.65,0.35-1.2
				c0.07-0.41,0.3-0.65,0.7-0.72c0.18-0.02,0.37,0.07,0.58,0.28c0.05,0.04,0.3,0.5,0.76,1.4c0.13,0.29,0.5,0.66,1.1,1.11
				c0.6,0.44,1.03,0.67,1.27,0.67l2.02,0.16c0.7-0.11,1.21-0.96,1.52-2.54c0.27-1.39,0.31-2.75,0.1-4.06l-0.89-4.55l-0.13-0.62
				L321.48,299.63z"/>
			<path class="st4" d="M342.87,265.58l-0.05,0.08l-0.34,0.17l-1.24,0.78c-0.46,0.22-0.76,0.43-0.9,0.62l-0.56,0.82
				c-0.28,0.28-0.45,0.43-0.49,0.43c-0.02,0-0.45-0.18-1.29-0.56c-0.55-0.23-0.97-0.72-1.26-1.45c-0.18-0.48-0.51-0.91-0.99-1.27
				c-0.4-0.28-0.65-0.54-0.76-0.77c-0.09-0.23-0.18-0.36-0.25-0.4l-0.08-0.05l0.02-0.07c0.08-0.18,0.2-0.32,0.36-0.44
				c0.52-0.35,1.5-1.12,2.92-2.29c2.93-2.42,5.85-4.28,8.77-5.59c2.51-1.14,4.57-1.87,6.16-2.17c2.24-0.43,4.42-0.15,6.54,0.85
				c1.05,0.5,1.96,1.3,2.74,2.39c0.43,0.6,0.7,0.93,0.8,1l0.89,0.57c0.3,0.19,0.9,0.91,1.78,2.17c0.94,1.36,1.54,2.74,1.81,4.13
				c0.28,1.44,0.15,3.35-0.39,5.74c-0.56,2.6-1.66,4.79-3.28,6.57c-1.08,1.2-2.16,2.29-3.24,3.27c-0.86,0.82-1.81,1.35-2.85,1.6
				c-0.37,0.07-0.78,0.29-1.23,0.68c-0.35,0.2-0.52,0.31-0.55,0.31c-0.07,0.01-0.16,0-0.28-0.05c-0.36-0.09-0.68-0.1-1-0.04
				c-0.5,0.07-0.78,0.09-0.84,0.06l-0.44-0.39c-0.17-0.15-0.33-0.22-0.49-0.21c-0.33,0.02-0.44,0.34-0.32,0.98
				c0.02,0.11,0.06,0.26,0.12,0.45c0.16,0.47,0.29,1,0.41,1.59l0.74,3.99c0.84,3.44,1.27,5.21,1.29,5.32
				c0.13,0.43,0.5,0.96,1.12,1.58c0.13,0.22,0.21,0.34,0.21,0.37l-0.01,0.3c-0.04,0.53-0.08,0.85-0.12,0.98
				c-0.03,0.1-0.17,0.3-0.43,0.62c-0.21,0.47-0.42,0.8-0.66,0.98c-0.55,0.45-0.93,0.69-1.12,0.73c-0.41,0.08-1.02-0.01-1.81-0.26
				c-0.41-0.12-0.82-0.43-1.23-0.92c-0.32-0.41-0.58-0.66-0.75-0.74c-0.07-0.03-0.4-0.07-0.97-0.11c-0.6-0.05-1.12-0.27-1.59-0.68
				c-0.3-0.26-0.45-0.46-0.49-0.59c-0.02-0.11,0.16-0.34,0.54-0.71c0.1-0.09,0.13-0.22,0.09-0.39c-0.01-0.09-0.07-0.21-0.17-0.37
				c-0.15-0.31-0.26-0.66-0.34-1.06c-0.25-1.26-0.5-2.94-0.74-5.05c-0.2-1.75-0.53-4.04-0.98-6.86c-1.1-6.66-1.77-11.34-1.99-14.04
				c-0.02-0.49-0.06-0.86-0.1-1.1c-0.17-0.85-0.34-1.31-0.54-1.39L342.87,265.58z M348.85,262.46c0.07,0.01,0.14,0.03,0.21,0.06
				c0.94,0.18,1.48,0.56,1.61,1.15c0.01,0.05-0.1,0.29-0.33,0.74c-0.1,0.18-0.1,0.55,0.01,1.12c0.08,0.55,0.19,1.75,0.32,3.6
				c0.19,2.73,0.45,4.91,0.76,6.57c0.17,0.89,0.54,1.29,1.11,1.18c0.59-0.11,1.37-0.53,2.34-1.26c2.23-1.69,3.98-3.96,5.27-6.78
				c0.97-2.1,1.24-4.29,0.8-6.57c-0.17-0.91-0.37-1.49-0.57-1.72l-0.56-0.6c-0.46-0.52-0.77-0.81-0.95-0.87
				c-0.94-0.3-2.06-0.32-3.37-0.06C354.29,259.24,352.07,260.39,348.85,262.46z"/>
			<path class="st4" d="M373.3,262l-1.07,0.4c-0.35,0.07-1.04-0.14-2.08-0.65c-1.32-0.65-2.08-1.44-2.26-2.35
				c-0.13-0.61-0.08-1.44,0.16-2.48c0.16-0.67,0.34-1.16,0.54-1.48c0.05-0.08,0.32-0.23,0.79-0.47l1.13-0.61l0.98-0.03
				c0.8-0.06,1.3-0.06,1.5-0.01c0.49,0.19,1.05,0.55,1.66,1.08c0.14,0.11,0.33,0.52,0.56,1.24c0.11,0.27,0.23,0.53,0.37,0.77
				c0.1,0.14,0.15,0.25,0.18,0.34c0.04,0.2-0.18,0.92-0.67,2.18c-0.28,0.96-0.45,1.5-0.52,1.6c-0.18,0.2-0.37,0.32-0.57,0.36
				L373.3,262z M379.45,291.25l-0.92,0.33c-0.22,0.05-0.65-0.05-1.29-0.31c-1.45-0.53-2.67-1.57-3.65-3.12
				c-0.63-0.98-1.05-1.96-1.26-2.93c-0.13-0.63-0.26-1.52-0.38-2.64c-0.16-1.62-0.37-3.03-0.62-4.23c-0.13-0.63-0.2-1.35-0.21-2.14
				c-0.38-2.05-0.53-3.54-0.43-4.47c0.05-0.51,0.05-0.87,0.01-1.09c-0.08-0.39-0.23-0.72-0.45-1c-0.01-0.04-0.2-0.13-0.56-0.25
				c-0.03-0.01-0.05-0.05-0.06-0.09c-0.01-0.07,0.01-0.18,0.06-0.35c0.03-0.08,0.04-0.12,0.04-0.15c-0.01-0.04-0.04-0.09-0.06-0.13
				c-0.06-0.07-0.09-0.13-0.1-0.18c-0.04-0.2,0.25-0.51,0.89-0.94l0.68-0.04c0.07-0.02,0.23-0.16,0.49-0.44
				c0.05-0.06,0.58-0.33,1.56-0.81c0.27-0.12,0.53-0.21,0.79-0.27c0.3-0.06,0.7,0.07,1.17,0.4c0.53,0.37,1.29,0.82,2.29,1.36
				c0.39,0.21,0.6,0.41,0.64,0.58c0.04,0.17,0,0.4-0.1,0.66c-0.27,0.74-0.42,1.26-0.42,1.55c-0.01,0.25,0.05,0.89,0.2,1.9
				c0.09,0.66,0.14,2.07,0.14,4.22c0,1.84,0.15,3.47,0.45,4.88c0.26,1.24,0.66,2.34,1.2,3.32c0.22,0.41,0.52,0.7,0.9,0.87
				c0.32,0.14,0.57,0.19,0.75,0.15c0.37-0.07,0.79-0.48,1.28-1.22c0.46-0.7,0.76-1.4,0.92-2.07c0.2-0.88,0.35-1.38,0.43-1.52
				c0.17-0.24,0.27-0.37,0.29-0.4c0.03-0.08,0.06-0.11,0.08-0.12c0.2-0.04,0.35,0.21,0.46,0.75c0.05,0.24,0.08,0.52,0.08,0.87
				c0.02,0.29,0.03,0.46,0.04,0.5l0.47,1.77c0.02,0.05-0.08,0.4-0.29,1.05l-0.15,0.57l-0.51,0.82l-0.23,0.39l-0.48,0.61l-0.95,1.43
				l-0.61,0.5c-0.85,0.84-1.37,1.26-1.57,1.28L379.45,291.25z"/>
			<path class="st4" d="M401.23,289.2c-0.09,0.02-0.29,0.13-0.61,0.34c-0.32,0.18-0.61,0.3-0.87,0.36
				c-0.74,0.16-1.76,0.25-3.08,0.27c-2.06,0.05-3.76,0.22-5.11,0.52c-0.78,0.18-1.77,0.61-2.99,1.28c-0.23,0.14-0.41,0.23-0.52,0.25
				c-0.54,0.12-1.06,0.05-1.55-0.2c-0.36-0.19-0.57-0.42-0.62-0.68c-0.06-0.24,0.1-0.64,0.45-1.19c0.08-0.13,0.1-0.29,0.06-0.49
				c-0.07-0.33-0.43-0.82-1.07-1.47c-0.32-0.42-0.49-0.65-0.49-0.67c-0.07-0.3,0.63-1.66,2.1-4.05c0.52-0.85,1.39-2.51,2.61-4.99
				c1.21-2.38,1.96-4.11,2.27-5.18c0.18-0.54,0.28-0.87,0.33-1c0.48-1.22,0.72-1.85,0.74-1.9c0.03-0.37,0.08-0.61,0.15-0.72
				l0.02-0.07l-0.05-0.09c-0.17-0.26-0.73-0.28-1.66-0.08c-0.13,0.03-1.18,0.37-3.16,1c-1.85,0.6-3.1,1.14-3.77,1.63
				c-0.12,0.07-0.2,0.11-0.24,0.12c-0.11,0.03-0.29,0-0.53-0.08c-0.25-0.1-0.39-0.21-0.41-0.32c-0.02-0.06,0.12-0.51,0.39-1.32
				c0.04-0.12,0.06-0.19,0.06-0.21c-0.01-0.04-0.17-0.16-0.46-0.34l-0.2-0.16c-0.09-0.07-0.14-0.13-0.17-0.17l-0.08-0.05l-0.09-1.18
				c-0.01-0.06-0.12-0.21-0.33-0.44c-0.21-0.22-0.35-0.46-0.4-0.69c-0.07-0.33-0.03-0.64,0.13-0.95c0.17-0.38,0.48-0.62,0.93-0.72
				c0.24-0.05,0.54-0.09,0.89-0.13c0.27-0.02,0.48-0.04,0.63-0.08c0.15-0.03,0.4-0.11,0.77-0.24c0.44-0.16,1.51-0.5,3.22-0.99
				c1.26-0.37,2.25-0.7,2.95-1c0.94-0.37,1.45-0.56,1.51-0.57l3.28-0.45l1.99-0.52c0.78-0.17,1.24,0.06,1.38,0.69
				c0.04,0.17-0.01,0.6-0.16,1.26c-0.04,0.13-0.05,0.22-0.04,0.29c0.01,0.08,0.08,0.2,0.18,0.34c0.15,0.17,0.24,0.31,0.26,0.42
				c0.04,0.17-0.01,0.38-0.14,0.61c-0.08,0.13-0.12,0.22-0.11,0.26c0.02,0.06,0.15,0.17,0.41,0.32c0.25,0.17,0.37,0.29,0.36,0.36
				l-0.01,0.11c-0.04,0.42-0.17,0.82-0.38,1.21c-1.01,1.79-2.17,4.32-3.47,7.56c-0.82,2.05-1.51,3.59-2.08,4.62
				c-1.13,2.09-1.75,3.45-1.86,4.07c-0.07,0.31-0.14,0.53-0.23,0.67c-0.05,0.06-0.08,0.1-0.08,0.12c0.04,0.16,0.22,0.22,0.56,0.22
				c0.39,0,1.78-0.22,4.19-0.66l2.71-0.4c0.63-0.14,1.24-0.38,1.85-0.72c0.38-0.22,0.68-0.36,0.9-0.4c0.28-0.07,0.5-0.01,0.65,0.16
				c0.23,0.22,0.36,0.4,0.4,0.56c0.05,0.24-0.19,0.79-0.72,1.66l-0.26,0.67c0.01,0.04,0.05,0.09,0.13,0.14
				c0.03,0.02,0.11,0.12,0.28,0.31c0.13,0.15,0.35,0.33,0.66,0.54c0.05,0.03,0.08,0.06,0.09,0.08l-0.04,0.14l-0.04,0.42l-0.12,0.4
				l0.15,0.38c0.03,0.11-0.01,0.24-0.11,0.4c-0.2,0.38-0.39,0.59-0.55,0.6L401.23,289.2z"/>
			<path class="st4" d="M421.45,284.5c-0.09,0.02-0.29,0.14-0.6,0.35c-0.32,0.19-0.61,0.32-0.87,0.38
				c-0.73,0.17-1.76,0.27-3.08,0.32c-2.06,0.07-3.75,0.27-5.09,0.59c-0.78,0.18-1.78,0.62-2.98,1.32c-0.23,0.15-0.41,0.24-0.52,0.26
				c-0.54,0.12-1.06,0.07-1.55-0.18c-0.37-0.19-0.58-0.41-0.64-0.67c-0.06-0.24,0.09-0.64,0.44-1.19c0.08-0.14,0.1-0.3,0.05-0.5
				c-0.08-0.32-0.44-0.8-1.09-1.45c-0.33-0.42-0.49-0.64-0.5-0.67c-0.07-0.3,0.61-1.66,2.05-4.08c0.51-0.85,1.35-2.52,2.55-5.02
				c1.16-2.4,1.9-4.13,2.19-5.21c0.17-0.54,0.27-0.87,0.31-0.99c0.46-1.23,0.7-1.87,0.71-1.92c0.02-0.37,0.07-0.61,0.13-0.71
				l0.02-0.07l-0.05-0.09c-0.17-0.25-0.73-0.27-1.65-0.05c-0.13,0.03-1.18,0.38-3.15,1.05c-1.84,0.62-3.09,1.18-3.74,1.67
				c-0.12,0.08-0.2,0.12-0.24,0.13c-0.11,0.02-0.29,0-0.53-0.08c-0.25-0.1-0.39-0.2-0.42-0.31c-0.01-0.07,0.1-0.5,0.37-1.32
				c0.04-0.13,0.06-0.2,0.05-0.22c-0.01-0.05-0.16-0.16-0.46-0.34l-0.2-0.16c-0.08-0.07-0.15-0.12-0.18-0.16l-0.08-0.05l-0.1-1.17
				c-0.02-0.06-0.13-0.21-0.34-0.43c-0.21-0.22-0.35-0.45-0.4-0.69c-0.08-0.32-0.04-0.64,0.11-0.95c0.16-0.38,0.47-0.62,0.92-0.73
				c0.23-0.06,0.53-0.11,0.89-0.14c0.27-0.02,0.48-0.04,0.63-0.08c0.16-0.03,0.41-0.12,0.76-0.25c0.44-0.17,1.51-0.52,3.22-1.03
				c1.25-0.39,2.23-0.73,2.94-1.04c0.93-0.38,1.43-0.57,1.5-0.59l3.27-0.5l2-0.54c0.78-0.18,1.24,0.04,1.39,0.66
				c0.04,0.18-0.01,0.6-0.15,1.27c-0.04,0.13-0.05,0.22-0.03,0.28c0.02,0.09,0.08,0.2,0.18,0.33c0.15,0.17,0.24,0.31,0.27,0.42
				c0.04,0.17,0,0.38-0.13,0.61c-0.09,0.14-0.12,0.22-0.1,0.27c0.01,0.06,0.15,0.17,0.41,0.31c0.25,0.17,0.37,0.29,0.36,0.36
				l-0.01,0.11c-0.04,0.42-0.16,0.82-0.36,1.21c-0.99,1.81-2.11,4.35-3.37,7.61c-0.79,2.06-1.46,3.62-2.02,4.65
				c-1.1,2.11-1.7,3.47-1.8,4.09c-0.07,0.32-0.14,0.54-0.22,0.67c-0.05,0.06-0.08,0.1-0.08,0.12c0.04,0.15,0.23,0.22,0.57,0.21
				c0.39,0,1.78-0.24,4.17-0.72l2.7-0.43c0.63-0.15,1.24-0.39,1.84-0.74c0.38-0.23,0.68-0.37,0.9-0.42c0.28-0.07,0.5-0.01,0.65,0.16
				c0.24,0.22,0.37,0.4,0.41,0.55c0.06,0.24-0.18,0.8-0.7,1.68l-0.25,0.67c0.01,0.05,0.05,0.09,0.13,0.14
				c0.03,0.02,0.11,0.12,0.28,0.31c0.13,0.16,0.35,0.33,0.67,0.53c0.06,0.03,0.08,0.06,0.08,0.08l-0.03,0.14l-0.04,0.42l-0.11,0.4
				l0.16,0.37c0.02,0.11-0.01,0.24-0.11,0.4c-0.21,0.39-0.39,0.59-0.54,0.61L421.45,284.5z"/>
			<path class="st4" d="M437.66,274.29c-0.25,0.66-0.64,1.99-1.16,4c-0.21,0.72-0.7,1.58-1.47,2.6c-0.78,1.02-1.39,1.58-1.84,1.7
				c-0.3,0.08-0.87,0.05-1.7-0.09c-1.46-0.23-2.71-0.99-3.77-2.28c-1.05-1.27-1.81-2.81-2.26-4.62c-0.43-1.7-0.82-4.71-1.17-9.01
				c-0.25-3.17-0.17-5.45,0.23-6.86c0.21-0.71,0.58-1.67,1.13-2.86c0.32-0.75,0.63-1.24,0.94-1.47c1.77-1.43,2.86-2.2,3.27-2.3
				c0.6-0.15,1.49-0.01,2.65,0.44c0.4,0.15,0.75,0.36,1.05,0.62c0.25,0.21,0.41,0.31,0.46,0.3c0.44-0.21,0.72-0.33,0.82-0.38
				c0.4,0.22,0.73,0.38,0.98,0.47c0.24,0.06,0.94-0.04,2.09-0.28c1.01-0.21,1.78-0.13,2.33,0.24c0.11,0.07,0.29,0.34,0.55,0.82
				l0.38,0.28l0.12,0.17l0.05,0.09l-0.03,0.15l-0.14,0.55l-0.16,0.69l0.37,1.07c0.03,0.13,0.01,0.37-0.06,0.74
				c-0.15,0.93-0.15,2.05,0.02,3.36c0.3,2.01,0.45,3.52,0.45,4.52c0.02,0.43,0.06,0.78,0.12,1.04c0.12,0.49,0.43,1.21,0.92,2.17
				c0.72,1.35,1.39,1.96,1.97,1.81c0.27-0.07,0.6-0.47,0.97-1.2c1.05-2.08,1.68-3.62,1.86-4.63c0.1-0.53,0.21-0.81,0.34-0.84
				c0.04-0.01,0.12,0.04,0.24,0.15c0.13,0.13,0.2,0.24,0.22,0.32c0.04,0.15,0.05,0.41,0.06,0.78c0,0.27,0.04,0.55,0.1,0.83
				c0.07,0.26,0.15,0.51,0.26,0.76c0.15,0.33,0.23,0.52,0.25,0.59c0.11,0.43,0.07,0.83-0.11,1.19c-1.04,2.35-1.63,3.63-1.78,3.85
				c-0.14,0.19-0.4,0.38-0.79,0.54c-0.05,0.02-0.32,0.38-0.83,1.1c-0.23,0.36-0.65,0.69-1.26,1.01c-0.56,0.25-0.91,0.45-1.06,0.61
				c-0.13,0.1-0.22,0.16-0.26,0.17l-2.3-0.28C439.92,276.83,438.9,275.95,437.66,274.29z M432.04,256.74
				c-0.24,0.04-0.4,0.14-0.49,0.3c-0.09,0.16-0.16,0.51-0.23,1.05c-0.31,1.34-0.47,2.68-0.46,4.03c0,3.76,0.04,6.14,0.09,7.14
				c0.06,1,0.24,2.13,0.56,3.38c0.41,1.64,0.98,2.84,1.7,3.62c0.3,0.31,0.58,0.44,0.82,0.38c0.19-0.05,0.36-0.31,0.49-0.78
				c0.19-0.62,0.47-1.25,0.83-1.89l0-0.55l0.18-1.07c0.12-1.98,0.11-3.27-0.01-3.88l0-0.82l-0.23-1.32
				c0.04-0.29,0.03-0.58-0.05-0.88c-0.1-0.39-0.14-0.9-0.15-1.54c-0.01-1.3-0.1-2.41-0.29-3.33c-0.01-0.77-0.04-1.24-0.07-1.39
				c-0.24-0.97-0.57-1.67-0.98-2.09c-0.09-0.09-0.41-0.12-0.95-0.07C432.38,256.82,432.13,256.72,432.04,256.74z"/>
		</g>
		<g>
			<path class="st0" d="M78.75,303.75c-0.22,0.19-0.39,0.3-0.5,0.36c-0.35,0.21-0.7,0.46-1.04,0.77c-0.15,0.14-0.42,0.2-0.82,0.16
				c-0.24-0.02-0.64-0.21-1.18-0.58l-0.59-0.13c-0.57-0.14-1.11-0.52-1.63-1.13c-0.14-0.17-0.33-0.6-0.58-1.29
				c0-0.02-0.16-0.15-0.5-0.38c-0.29-0.23-0.51-0.61-0.66-1.13l-0.02-0.14c0-0.03,0.01-0.06,0.04-0.1c0.25-0.27,0.39-0.52,0.41-0.77
				c0.02-0.17,0-0.49-0.04-0.94c-0.07-0.45-0.09-0.87-0.05-1.24l0.36-2.37l0.81-5.35c0.4-1.65,0.65-2.74,0.75-3.25
				c0.09-0.52,0.25-1.51,0.45-2.99c0.09-0.68,0.59-4.36,1.5-11.04l0.41-3.57c0.12-0.33,0.19-0.57,0.2-0.76
				c0.03-0.35-0.37-0.68-1.21-0.98l-2.16-0.11c-0.38-0.01-0.56-0.16-0.53-0.45c0-0.04,0.15-0.28,0.43-0.69l0.35-0.47
				c0-0.07-0.1-0.28-0.31-0.64c-0.08-0.09-0.2-0.49-0.35-1.17c-0.16-0.62-0.24-0.96-0.24-1.03l0.27-1.05
				c0.09-0.93,0.21-1.51,0.37-1.74c0.23-0.26,0.46-0.39,0.7-0.36c0.2,0.02,0.63,0.22,1.28,0.59c0.42,0.24,0.94,0.39,1.56,0.45
				c0.97,0.09,2.23,0.16,3.76,0.19c1.49,0.03,2.86,0.1,4.1,0.19c1.08,0.08,2.44,0.06,4.05-0.05c0.88-0.07,1.72-0.07,2.51,0.01
				c0.53,0.05,0.97,0.14,1.31,0.26c0.45,0.16,0.72,0.24,0.78,0.24l1.41,0c0.22,0,0.34,0.29,0.35,0.87
				c-0.01,0.63,0.05,1.11,0.19,1.46c0.23,0.47,0.33,0.77,0.32,0.9c0,0.02-0.19,0.37-0.57,1.05l-0.28,0.47
				c-0.01,0.07,0.11,0.3,0.37,0.7c0.23,0.4,0.33,0.77,0.3,1.1c-0.03,0.31-0.41,0.68-1.14,1.09l-0.51,0.42
				c-0.48-0.61-1.46-0.98-2.94-1.12c-0.66-0.06-2.2,0.06-4.62,0.36c-0.34,0.03-0.78,0.02-1.34-0.03c-0.66-0.06-1.01,0.08-1.04,0.44
				c0,0.02,0.02,0.07,0.05,0.14c0.15,0.26,0.22,0.49,0.21,0.69l-0.28,0.81l-0.32,1.98l-0.77,3.5l-0.54,2.49
				c-0.06,0.17-0.1,0.31-0.11,0.42c-0.01,0.07,0.02,0.15,0.07,0.24c0.08,0.16,0.11,0.25,0.11,0.28l-0.22,0.55l0.1,0.04
				c0.54,0.23,0.88,0.36,1.03,0.37c0.11,0.01,0.27,0,0.47-0.02c0.79-0.1,1.97-0.14,3.56-0.09l1.92-0.15l1.09,0.17l1.04,0
				c0.29,0.03,0.52,0.22,0.71,0.57c0.21,0.35,0.31,0.68,0.27,1c-0.02,0.2,0.04,0.34,0.16,0.42l-0.07-0.01
				c-0.21,0.29-0.31,0.45-0.31,0.47c0,0.02,0.03,0.07,0.09,0.14c0.09,0.17,0.14,0.29,0.13,0.38c-0.01,0.13-0.19,0.45-0.53,0.95
				c-0.31,0.46-0.49,0.89-0.52,1.29c-0.03,0.26,0.16,0.71,0.58,1.33c0.21,0.33,0.31,0.61,0.29,0.83c-0.02,0.18-0.12,0.36-0.32,0.54
				c-0.22,0.21-0.42,0.3-0.59,0.28c-0.13-0.01-0.4-0.15-0.8-0.41c-0.32-0.21-0.71-0.34-1.17-0.38c-0.37-0.04-0.81-0.06-1.3-0.06
				c-1.94,0.03-3,0.07-3.15,0.1c-0.78,0.15-1.23,0.21-1.36,0.2l-2.11-0.34c-0.3,0.1-0.46,0.26-0.48,0.46l-0.11,2.17
				c-0.01,0.15-0.1,0.62-0.27,1.41c-0.12,0.54-0.2,1.04-0.25,1.48c-0.04,0.42-0.15,2.35-0.32,5.8c0.02,1.6,0.04,2.46,0.06,2.55
				c0.01,0.13,0.15,0.47,0.44,1.01c0.14,0.43,0.21,0.67,0.2,0.69c-0.03,0.24-0.15,0.45-0.36,0.63c-0.12,0.1-0.26,0.14-0.41,0.13
				c-0.05,0-0.12-0.02-0.23-0.05c-0.02,0-0.05-0.01-0.07-0.01L78.75,303.75z"/>
			<path class="st0" d="M98.56,286.89c-0.13,0.41-0.3,1.04-0.52,1.89c-0.85,2.99-1.8,5.27-2.87,6.85c-1.02,1.55-1.55,2.37-1.61,2.48
				c-0.32,0.64-0.57,0.96-0.75,0.94c-0.02,0-0.09-0.07-0.22-0.22c-0.1-0.14-0.14-0.28-0.13-0.41c0.01-0.16,0.09-0.45,0.24-0.89
				c0.09-0.24,0.14-0.54,0.17-0.92c0.03-0.35,0.02-0.72-0.01-1.1c-0.02-0.36-0.02-0.6-0.01-0.73c0.01-0.13,0.18-0.72,0.51-1.77
				c0.18-0.52,0.38-1.34,0.61-2.46c0.27-1.47,0.52-2.5,0.72-3.08c0.09-0.33,0.15-0.59,0.17-0.79c0.02-0.18-0.16-0.66-0.52-1.45
				c-0.26-0.62-0.36-1.17-0.3-1.63l0.27-2.15l0.2-1.69l0.37-2.44c-0.02-0.29-0.03-0.51-0.01-0.67c0.02-0.18,0.28-0.41,0.8-0.7
				l0.89-0.63l1.12-0.54l0.25-0.15c0.07,0.01,0.2,0.11,0.41,0.3c0.14,0.15,0.39,0.26,0.74,0.33c0.66,0.14,1.03,0.3,1.13,0.46
				c0.02,0.07,0.04,0.45,0.07,1.14c0,0.05-0.15,0.32-0.43,0.83l-0.23,0.68c-0.27,0.89-0.41,1.35-0.41,1.37l0.17,0.75l-0.11,0.5
				c0.02,0.22,0.26,0.35,0.7,0.39c0.57,0.05,1.31-0.08,2.21-0.39c0.75-0.23,1.35-0.61,1.8-1.16c0.2-0.23,0.43-0.35,0.7-0.38
				c0.09-0.02,0.4-0.05,0.94-0.09c0.11-0.01,0.33,0.16,0.66,0.52c0.49,0.51,0.95,0.84,1.36,0.98l1.07,0.42
				c0.3,0.14,0.56,0.37,0.78,0.7c0.32,0.47,0.46,0.84,0.45,1.11c-0.01,0.11-0.32,0.39-0.94,0.82c-0.07,0.04-0.14,0.21-0.21,0.52
				c-0.31,1.02-0.52,1.67-0.62,1.95c-0.11,0.24-0.22,0.57-0.32,1.01c0,0.04-0.11,0.28-0.32,0.71c-0.13,0.24-0.2,0.45-0.22,0.65
				l-0.08,0.93c-0.02,0.27-0.2,0.81-0.53,1.63c-0.11,1.06-0.27,2.02-0.47,2.87c-0.27,1.09-0.43,2.01-0.49,2.73
				c-0.05,0.64,0.01,1.36,0.19,2.16c0.14,0.66,0.46,1.09,0.96,1.29c0.11,0.05,0.54,0.14,1.28,0.27l0.66,0.19
				c0.18,0.01,0.49-0.3,0.95-0.96l1.05-0.98c0.76-1.1,1.22-1.65,1.38-1.66c0.2,0,0.29,0.18,0.25,0.56l-0.2,1.69
				c-0.08,0.93-0.14,1.5-0.19,1.71c-0.05,0.21-0.17,0.44-0.34,0.69c-0.73,0.99-2.28,2.27-4.66,3.83c-1.08,0.71-1.9,1.05-2.46,1
				c-0.02,0-0.53-0.16-1.53-0.49c-1.34-0.46-2.4-1.35-3.19-2.67c-0.27-0.47-0.53-1.02-0.76-1.67c-0.32-0.94-0.47-1.62-0.43-2.04
				l0.45-3.84l0.13-1.16l0.52-1.9l0.7-2.45c0.29-1.07,0.52-1.76,0.68-2.08c0.13-0.3,0.21-0.52,0.22-0.65
				c0.03-0.26-0.1-0.53-0.37-0.79c-0.27-0.3-0.42-0.44-0.46-0.45c-0.04,0-0.22,0.09-0.52,0.26c-0.3,0.17-0.63,0.24-0.98,0.19
				l-0.2-0.02C98.73,286.94,98.64,286.92,98.56,286.89z"/>
			<path class="st0" d="M116.39,280.79c0.54-0.01,0.84-0.03,0.91-0.07l2.46-0.86c0.62-0.22,1.78-0.29,3.49-0.19l2.15-0.08
				c0.55,0.04,1.18,0.53,1.9,1.47c0.47,0.59,1,1.15,1.59,1.68c0.21,0.19,0.45,0.73,0.72,1.62c0.45,1.5,0.63,2.94,0.53,4.31
				c-0.14,2-0.8,3.9-1.97,5.71c-0.15,0.26-0.72,0.83-1.71,1.7c-0.98,0.88-1.6,1.38-1.86,1.49c-0.87,0.4-1.4,0.61-1.58,0.59
				c-0.11-0.01-0.22-0.02-0.33-0.02c-0.41,0.21-0.72,0.32-0.92,0.3c-0.11-0.01-0.72-0.13-1.82-0.36c-0.35-0.09-0.58-0.14-0.69-0.14
				c-0.37-0.03-0.58,0.22-0.62,0.76c-0.08,1.17,0.21,2.31,0.87,3.4c0.62,1,1.45,1.54,2.49,1.61c1.38,0.09,2.9-0.32,4.56-1.26
				c0.33-0.2,0.91-0.72,1.75-1.58c0.17-0.17,0.5-0.44,0.99-0.83c0.66-0.51,1.09-0.95,1.29-1.31c0.33-0.54,0.62-0.92,0.88-1.14
				c0.26-0.25,0.42-0.37,0.46-0.37c0.2,0.01,0.28,0.17,0.27,0.45c-0.01,0.07-0.03,0.21-0.07,0.43c-0.06,0.24-0.1,0.47-0.11,0.69
				c-0.02,0.31-0.02,0.67-0.01,1.06c0.02,0.4,0.01,0.74,0,1.01c-0.03,0.4-0.24,0.87-0.63,1.42c-0.87,1.23-1.97,2.24-3.32,3.01
				c-0.63,0.36-1.51,1.05-2.65,2.09c-0.5,0.44-1.41,0.82-2.75,1.16c-1.34,0.34-2.48,0.48-3.43,0.41c-1.35-0.09-2.74-0.89-4.17-2.4
				c-0.85-0.9-1.43-1.61-1.76-2.12c-0.94-1.53-1.33-3.4-1.18-5.59c0.12-1.71,0.36-3.71,0.72-6.02c0.28-1.76,1.02-4.57,2.23-8.43
				C115.53,282.92,115.97,281.72,116.39,280.79z M123.14,282.3c-0.45,0.02-1.06,1.24-1.83,3.68c-1.39,4.38-2.14,7.23-2.23,8.56
				c-0.01,0.18,0.01,0.31,0.07,0.41c0.02,0.04,0.19,0.11,0.52,0.2c0.11,0.01,0.26,0.08,0.45,0.23c0.23,0.15,0.44,0.23,0.62,0.24
				c0.77,0.06,1.55-0.83,2.32-2.64c0.96-2.23,1.5-4.3,1.63-6.2c0.1-1.4,0-2.55-0.29-3.46c-0.09-0.27-0.36-0.52-0.79-0.72
				L123.14,282.3z"/>
			<path class="st0" d="M132.13,302.57c-0.21,0.19-0.48,0.38-0.8,0.59c-0.14,0.06-0.4,0.35-0.78,0.86
				c-0.34,0.47-0.69,0.77-1.05,0.91c-0.39,0.14-0.63,0.27-0.72,0.39c-0.03,0.05-0.05,0.07-0.07,0.06l-0.12-0.17
				c-0.11-0.1-0.16-0.21-0.15-0.34l0.05-1.03l0.08-1.3c0.03-0.49,0.51-1.16,1.45-2.02c0.45-0.41,0.93-1.06,1.44-1.92
				c0.22-0.32,0.36-0.66,0.43-1.01c0.03-0.24,0.17-0.71,0.41-1.41c1.79-5.37,2.7-8.18,2.71-8.42l0.01-2.6
				c0.01-0.16,0.1-0.41,0.28-0.75c0.2-0.32,0.29-0.5,0.3-0.55l-0.2-1.75c-0.03-0.2,0.46-0.35,1.49-0.45
				c0.09-0.02,0.39-0.21,0.9-0.58c0.81-0.56,1.36-0.8,1.64-0.74l0.59,0.13l1.47-0.02l0.63,0.14c0.81,0.15,1.29,0.3,1.44,0.44
				c0.34,0.33,0.44,1.35,0.3,3.06c-0.08,1.06,0.12,2.27,0.6,3.64c0.38,1.07,0.6,1.91,0.66,2.54c0.05,0.71,0.11,1.14,0.2,1.28
				c0.02,0.07,0.28,0.46,0.8,1.18c0.29,0.4,0.64,1.64,1.06,3.73c0.17,0.81,0.24,1.54,0.21,2.19c-0.01,0.13-0.15,1.19-0.41,3.18
				c-0.19,1.35-0.91,2.75-2.17,4.21c-0.62,0.7-1.27,1.26-1.96,1.69c-0.69,0.38-1.83,0.92-3.43,1.61c-0.73,0.31-1.3,0.59-1.71,0.84
				c-0.79,0.47-1.3,0.69-1.54,0.68c-0.22-0.01-0.81-0.37-1.77-1.07c-1.01-0.72-1.69-1.66-2.04-2.81c-0.34-1.13-0.49-2.04-0.45-2.73
				c0.01-0.2,0.05-0.5,0.12-0.9c0.03-0.13,0.06-0.28,0.09-0.43C132.08,302.83,132.1,302.73,132.13,302.57z M133.79,299.76
				c0.07-0.04,0.16-0.08,0.27-0.12c0.18-0.08,0.58-0.3,1.2-0.67l1.14-0.6c0.11,0.05,0.17,0.09,0.19,0.11c0.02,0,0.03,0.2,0.03,0.6
				l0.2,0.55l-0.24,0.72l-0.52,1.51l-0.32,0.95c-0.03,0.55,0.38,1.3,1.24,2.24c0.5,0.58,0.93,0.88,1.28,0.91
				c0.62,0.04,1.35-0.44,2.18-1.41c0.5-0.57,0.77-1.26,0.82-2.09c0.05-0.82-0.02-1.4-0.2-1.75l-0.3-0.65
				c-0.22-0.44-0.4-1.12-0.55-2.07l-0.95-2.69l-0.38-2.16c-0.36-1.2-0.52-2.01-0.5-2.43c0.01-0.2,0.04-0.44,0.1-0.69
				c0.06-0.18,0.09-0.33,0.1-0.46c0-0.11-0.06-0.29-0.21-0.55l-0.06-0.07c-0.03,0.07-0.08,0.11-0.14,0.13
				c-0.16,0.06-0.27,0.28-0.34,0.65c-0.18,0.84-0.61,2.15-1.29,3.93c-0.71,1.83-1.18,3-1.42,3.51
				C134.91,297.66,134.46,298.53,133.79,299.76z"/>
			<path class="st0" d="M155.89,298.99c0.27-0.67,0.48-1.19,0.63-1.54c0.99-2.43,1.95-4.93,2.87-7.49c1.24-3.1,1.87-4.79,1.88-5.06
				c0-0.15-0.03-0.33-0.11-0.51c-0.12-0.31-0.18-0.53-0.18-0.64c0.01-0.13,0.15-0.28,0.42-0.45c1.32-0.79,2.58-1.16,3.78-1.11
				c0.38,0.02,0.76,0.11,1.15,0.28c0.17,0.07,0.3,0.11,0.36,0.11c0.07,0.01,0.35-0.06,0.84-0.19l0.07-0.07
				c0.02,0,0.06,0.03,0.13,0.11c0.02,0.02,0.13,0.14,0.32,0.34c0.17,0.16,0.41,0.63,0.71,1.4c0.12,0.25,0.24,0.45,0.34,0.61
				c0.21,0.3,0.32,0.47,0.31,0.51l-0.23,0.72l-0.04,0.87l-0.63,0.84c-0.33,0.45-0.78,1.78-1.33,3.98c-0.64,2.51-0.99,4.65-1.07,6.42
				c-0.09,2.24,0.02,3.53,0.34,3.85c0.77,0.76,1.18,1.15,1.25,1.15c0.11,0.01,0.56-0.26,1.34-0.81c0.48-0.36,1.3-1.46,2.44-3.3
				c0.21-0.38,0.41-0.56,0.59-0.54c0.04,0,0.11,0.08,0.19,0.24c0.06,0.14,0.09,0.25,0.09,0.34c0,0.09-0.03,0.24-0.08,0.46
				c-0.08,0.24-0.12,0.53-0.14,0.86c-0.01,0.27,0,0.54,0.03,0.81c0.04,0.56,0.06,0.97,0.05,1.24c-0.01,0.31-0.32,0.79-0.93,1.43
				c-0.26,0.41-0.6,0.76-1.01,1.03c-0.14,0.08-0.37,0.27-0.69,0.57c-1.87,1.77-3.57,2.62-5.11,2.56c-1.11-0.05-2.05-0.47-2.82-1.28
				c-1.36-1.43-2-3.31-1.9-5.65c0.03-0.64,0.1-1.4,0.23-2.26c0.26-1.95,0.52-3.19,0.79-3.74c0.09-0.17,0.14-0.3,0.15-0.39
				c0-0.09-0.05-0.21-0.15-0.37l-0.63,0.58l-1.21,3.35l-1.66,3.9l-0.63,2.24l-0.38,1.35c-0.38,2.65-0.62,4.04-0.74,4.17
				c-0.07,0.09-0.29,0.14-0.64,0.17c-0.18,0.02-0.6,0.19-1.29,0.52c-0.11,0.06-0.19,0.09-0.24,0.09c-0.35-0.01-0.91-0.42-1.68-1.23
				c-0.63-0.36-0.99-0.6-1.07-0.71c-0.7-0.9-0.96-3.35-0.8-7.37c0.04-1.06,0.14-2.05,0.29-2.96c0.28-1.92,0.42-2.96,0.43-3.12
				l-0.06-4.9l0.21-1.12c0.09-0.46,0.27-3,0.55-7.61c0.09-1.66,0.28-3.52,0.56-5.58c0.29-2.12,0.52-3.48,0.7-4.07
				c0.1-0.35,0.16-0.6,0.16-0.76c0.01-0.24-0.07-0.49-0.24-0.74c-0.16-0.25-0.25-0.4-0.25-0.45l0.23-0.79l-0.14-0.54
				c0-0.02,0.03-0.09,0.11-0.2c0.1-0.13,0.14-0.24,0.14-0.33c0.01-0.13-0.04-0.34-0.14-0.64c-0.06-0.16-0.09-0.29-0.09-0.4
				c0.02-0.42,0.21-0.76,0.58-1.01c0.21-0.15,0.91-0.27,2.12-0.38c0.38-0.05,0.92-0.14,1.61-0.27c0.51-0.11,0.94-0.16,1.27-0.15
				c0.47,0.02,0.81,0.19,1.05,0.51c0.04,0.07,0.15,0.39,0.32,0.98c0,0.04,0.1,0.19,0.32,0.44c0.59,0.74,0.91,1.52,0.97,2.34
				l0.05,0.6c0,0.09-0.09,0.27-0.26,0.55c-0.02,0.04-0.04,0.22-0.05,0.54c-0.03,0.22-0.2,0.53-0.51,0.94
				c-0.02,0.04-0.13,0.39-0.31,1.05c-0.02,0.02-0.16,0.36-0.41,1.02l-0.68,4.44l-0.88,5.23l-0.83,7.23
				c-0.51,3.8-0.77,5.72-0.77,5.77l0.03,0.87l-0.02,0.4l0.03,0.24L155.89,298.99z"/>
			<path class="st0" d="M203.84,309.34c2.36,0.1,3.96,0.25,4.83,0.46c0.27,0.07,0.46,0.16,0.57,0.27c0,0.03,0.06,0.26,0.2,0.7
				l1.06,0.81c0.22,0.18,0.42,0.62,0.59,1.3c0.22,0.76,0.45,1.39,0.69,1.9c0.18,0.4,0.26,0.72,0.26,0.97c0,0.29-0.12,0.44-0.33,0.43
				c-0.18,0-0.38-0.08-0.6-0.23c-0.76-0.5-1.35-0.74-1.8-0.75c-0.49,0-1.23,0.15-2.23,0.46c-0.73,0.21-2.84,0.57-6.3,1.06
				c-4,0.93-6.58,1.39-7.74,1.38c-0.75-0.01-1.52-0.37-2.29-1.11c-0.67-0.63-1.04-1.16-1.13-1.61c-0.06-0.37-0.26-0.68-0.59-0.9
				c-0.8-0.6-1.19-1.09-1.19-1.44c0-0.2,0.1-0.36,0.3-0.49c0.29-0.22,0.61-0.33,0.97-0.33c0.07,0,0.15,0.01,0.23,0.04
				c0.53,0.07,0.85,0.1,0.96,0.1c0.41-0.02,1.17-0.2,2.3-0.55c0.09-0.04,1.31-0.35,3.67-0.91c-0.69-0.25-1.84-0.57-3.46-0.96
				c-0.65-0.16-1.16-0.51-1.56-1.04c-0.27-0.33-0.6-0.58-1-0.74c-0.69-0.27-1.42-1.01-2.18-2.24c-0.44-0.71-0.73-1.17-0.86-1.37
				c-0.88-1.27-1.43-2.11-1.62-2.53c-0.2-0.41-0.37-1.05-0.52-1.92c-0.09-0.58-0.17-2.13-0.24-4.66l-0.08-3.37l0.45-2.76l-0.05-2.1
				c0-0.67,0.25-1.8,0.75-3.39c0.81-2.53,1.42-4.76,1.8-6.69c0.46-2.13,0.79-3.5,0.99-4.12c0.11-0.33,0.17-0.54,0.17-0.63
				l-0.06-0.77l0.14-0.73c0-0.09-0.06-0.22-0.17-0.4c-0.04-0.09-0.06-0.16-0.06-0.2l0.06-0.2l0.07-0.2l0.57-0.53l0.94-0.89
				l0.13-0.07c0.09-0.07,0.14-0.1,0.17-0.1c0.02,0,0.07,0.02,0.13,0.07c0.11,0.09,0.21,0.13,0.3,0.13c0.29,0,0.77-0.1,1.43-0.33
				c0.22-0.06,0.4-0.09,0.53-0.09c0.16,0,0.34,0.03,0.53,0.1c0.18,0.07,0.3,0.1,0.36,0.1c0.18,0.01,0.7-0.37,1.57-1.12
				c0.51-0.44,0.85-0.65,1-0.63l0.96,0.14c0.02,0,0.37-0.14,1.03-0.43c0.29-0.11,0.59-0.16,0.9-0.16c0.8,0.01,2.23,0.15,4.29,0.43
				c0.6,0.09,1.67,0.63,3.22,1.62c2.19,1.39,3.84,4,4.95,7.83c0.89,3.14,1.33,6.37,1.3,9.7c-0.01,2.04-0.24,5.03-0.69,8.96
				c-0.09,0.91-0.37,1.66-0.81,2.26c-0.2,0.29-0.33,0.48-0.37,0.6c-0.11,0.29-0.3,1.23-0.55,2.83c-0.21,1.18-1.05,2.87-2.53,5.08
				C207.17,307,205.69,308.33,203.84,309.34z M200.85,270.67c-0.89-0.01-1.67,0.46-2.34,1.39c-1.46,1.92-2.31,3.89-2.57,5.91
				c-0.1,0.69-0.21,1.12-0.34,1.29c-0.07,0.09-0.3,0.22-0.7,0.4l-0.24,0.76c-0.5,1.55-0.8,2.51-0.9,2.86
				c-0.11,0.35-0.19,0.82-0.26,1.4c-0.72,4.84-1.08,7.99-1.09,9.45c-0.03,5.02,0.44,8.48,1.4,10.37c0.77,1.51,1.44,2.27,2.02,2.28
				c0.18,0,0.58-0.14,1.2-0.43c0.2-0.11,0.34-0.17,0.4-0.16c0.02,0,0.04,0,0.07,0c0.42,0.16,0.69,0.24,0.79,0.24
				c0.54,0,1.15-0.26,1.84-0.79c1.32-0.97,2.48-2.93,3.5-5.87c0.84-2.44,1.47-5.77,1.89-9.98c0.26-2.69,0.39-4.85,0.41-6.49
				c0.01-0.78-0.2-2.41-0.6-4.9c-0.28-1.84-0.45-2.95-0.52-3.32c-0.06-0.37-0.18-0.74-0.36-1.12c-0.68-1.42-1.57-2.43-2.68-3.02
				C201.42,270.77,201.11,270.67,200.85,270.67z"/>
			<path class="st0" d="M228.4,304.74c-1.5,2.86-2.67,4.71-3.49,5.56c-0.34,0.34-0.9,0.71-1.65,1.09c-0.76,0.39-1.33,0.58-1.7,0.59
				c-0.25,0.01-0.55-0.1-0.91-0.34c-0.23-0.13-0.62-0.22-1.17-0.27c-0.36-0.03-1.02-0.96-1.97-2.78c-0.94-1.84-1.39-3.48-1.36-4.93
				c0.07-2.49,0.11-4.16,0.13-5.01c0.04-0.91,0.16-1.8,0.36-2.67l-0.15-3.06c-0.02-0.67,0.13-1.43,0.44-2.28
				c0.19-0.47,0.28-0.85,0.27-1.14c0-0.11-0.15-0.38-0.42-0.82l0.07-1.1l-0.06-2.43c-0.01-0.35,0.2-0.78,0.63-1.28
				c0.5-0.54,0.95-0.82,1.35-0.83c0.11,0,0.3,0.04,0.57,0.15c0.25,0.1,0.47,0.15,0.67,0.15c0.16,0,0.58-0.21,1.29-0.63l0.43-0.21
				c0.04-0.05,0.08-0.07,0.1-0.07c0.02,0,0.04,0.02,0.07,0.06c0.14,0.17,0.4,0.32,0.81,0.45c0.18,0.04,0.67,0.6,1.48,1.69
				c0.27,0.36,0.41,0.6,0.42,0.68c0,0.03-0.09,0.37-0.27,1.04l-0.22,0.64l0.12,0.8c0,0.07-0.08,0.22-0.25,0.44
				c-0.36,0.47-0.54,1.5-0.52,3.08c0.02,0.67-0.22,2.69-0.71,6.05c-0.22,1.63-0.31,3.22-0.27,4.77c0.04,1.51,0.35,2.72,0.93,3.64
				c0.28,0.46,0.49,0.65,0.65,0.59c0.42-0.19,0.67-0.33,0.76-0.42c0.02-0.02,0.53-1.01,1.52-2.97c0.42-0.81,0.74-2.6,0.96-5.36
				c0.22-2.62,0.35-4.08,0.38-4.37c0.3-1.92,0.45-3.29,0.43-4.11c-0.01-0.18-0.05-0.38-0.15-0.6c-0.1-0.28-0.14-0.44-0.14-0.44
				l0.01-0.85l-0.24-0.36c-0.14-0.2-0.21-0.36-0.21-0.49c-0.01-0.49,0.2-1.01,0.63-1.55c0.17-0.25,0.32-0.37,0.46-0.35l0.83,0.07
				c0.62-0.01,1.11,0.03,1.47,0.14c0.72,0.18,1.27,0.26,1.67,0.25c0.22-0.01,0.52-0.07,0.9-0.19c0.13-0.05,0.23-0.07,0.3-0.07
				c0.4-0.01,0.6,0.13,0.61,0.41c0,0.14-0.02,0.26-0.06,0.37c-0.04,0.16-0.06,0.26-0.06,0.3c0,0.2,0.28,0.69,0.84,1.48l0.24,0.49
				c0,0.03-0.09,0.21-0.28,0.58l-0.29,0.37c-0.08,0.12-0.13,0.69-0.12,1.74c0,0.11-0.19,1.15-0.55,3.12
				c-0.33,1.77-0.48,3.28-0.45,4.54l-0.19,2.87c0.02,0.6,0.32,1.43,0.9,2.48c0.49,0.9,0.99,1.34,1.5,1.33
				c0.38-0.01,0.81-0.29,1.31-0.83c0.24-0.25,0.61-0.83,1.12-1.73c0.44-0.77,0.75-1.37,0.92-1.83c0.15-0.38,0.29-0.58,0.45-0.61
				c0.04-0.03,0.09-0.06,0.13-0.1l0.04,0.06c0.18,0.17,0.28,0.34,0.28,0.49l0.02,1.96c0.01,1.35-0.02,2.12-0.08,2.3
				c-0.04,0.09-0.32,0.43-0.84,1.02c-0.39,0.48-0.86,0.94-1.43,1.37c-0.24,0.2-0.46,0.4-0.65,0.58l-0.97,1.02l-1.25,0.67
				c-0.73,0.4-1.19,0.6-1.38,0.6c-0.49,0.01-1.21-0.24-2.15-0.74c-1.01-0.53-1.85-1.64-2.49-3.33
				C228.69,305.55,228.59,305.25,228.4,304.74z"/>
			<path class="st0" d="M251.75,303.76c-0.36,0.6-0.99,1.84-1.87,3.72c-0.34,0.66-0.98,1.43-1.93,2.29
				c-0.95,0.86-1.66,1.3-2.12,1.33c-0.31,0.02-0.86-0.11-1.66-0.4c-1.39-0.49-2.48-1.47-3.28-2.93c-0.8-1.44-1.26-3.09-1.38-4.95
				c-0.11-1.75,0.06-4.78,0.51-9.08c0.34-3.16,0.84-5.39,1.49-6.7c0.34-0.67,0.88-1.54,1.64-2.6c0.45-0.68,0.85-1.1,1.19-1.28
				c2-1.08,3.21-1.63,3.63-1.66c0.62-0.04,1.46,0.26,2.53,0.91c0.37,0.22,0.67,0.5,0.92,0.81c0.21,0.25,0.34,0.38,0.39,0.38
				c0.48-0.12,0.78-0.19,0.89-0.22c0.35,0.29,0.64,0.51,0.87,0.65c0.23,0.09,0.93,0.13,2.12,0.1c1.02-0.02,1.77,0.2,2.24,0.66
				c0.09,0.08,0.22,0.39,0.39,0.91l0.32,0.34l0.08,0.2l0.04,0.1l-0.06,0.14l-0.24,0.51l-0.29,0.65l0.17,1.12
				c0.01,0.13-0.06,0.37-0.19,0.71c-0.32,0.89-0.52,1.99-0.6,3.31c-0.07,2.03-0.2,3.54-0.39,4.53c-0.07,0.43-0.09,0.78-0.07,1.04
				c0.03,0.51,0.2,1.28,0.51,2.31c0.46,1.46,1,2.17,1.6,2.14c0.29-0.02,0.68-0.36,1.17-1.01c1.42-1.84,2.31-3.24,2.67-4.2
				c0.19-0.5,0.35-0.76,0.49-0.77c0.04,0,0.12,0.06,0.21,0.19c0.1,0.15,0.15,0.27,0.15,0.36c0.01,0.15-0.02,0.41-0.08,0.77
				c-0.05,0.27-0.06,0.55-0.05,0.84c0.01,0.27,0.05,0.53,0.11,0.79c0.09,0.35,0.13,0.56,0.14,0.63c0.03,0.44-0.08,0.83-0.33,1.15
				c-1.45,2.12-2.27,3.27-2.46,3.46c-0.16,0.17-0.46,0.29-0.87,0.38c-0.05,0-0.38,0.31-1.01,0.94c-0.29,0.3-0.77,0.56-1.42,0.75
				c-0.59,0.15-0.97,0.28-1.14,0.4c-0.15,0.08-0.25,0.11-0.29,0.12l-2.21-0.69C253.51,306.67,252.66,305.61,251.75,303.76z
				 M249.46,285.48c-0.25-0.01-0.43,0.06-0.54,0.2c-0.11,0.14-0.26,0.47-0.42,0.99c-0.55,1.26-0.94,2.55-1.2,3.88
				c-0.68,3.69-1.09,6.04-1.22,7.03c-0.13,1-0.15,2.14-0.07,3.43c0.1,1.68,0.44,2.97,1,3.87c0.25,0.37,0.49,0.54,0.73,0.52
				c0.2-0.01,0.41-0.24,0.63-0.67c0.3-0.57,0.69-1.14,1.16-1.71l0.1-0.54l0.37-1.02c0.48-1.92,0.72-3.19,0.7-3.81l0.15-0.81
				l0.02-1.34c0.1-0.28,0.13-0.56,0.11-0.87c-0.02-0.4,0.02-0.91,0.13-1.54c0.23-1.28,0.35-2.39,0.33-3.33
				c0.13-0.76,0.19-1.23,0.18-1.38c-0.06-1-0.25-1.74-0.57-2.23c-0.07-0.11-0.38-0.19-0.91-0.24
				C249.77,285.61,249.54,285.47,249.46,285.48z"/>
			<path class="st0" d="M269.38,296.19c-0.02,0.69-0.02,1.21,0.02,1.54c0.16,1.59,0.76,2.94,1.84,4.04
				c0.62,0.66,1.22,0.95,1.82,0.89c0.26-0.02,0.55-0.18,0.86-0.45c0.21-0.18,0.51-0.3,0.9-0.36c0.35-0.08,1.24-1.05,2.66-2.93
				c0.52-0.66,0.84-1.09,0.95-1.3c0.07-0.14,0.31-0.71,0.71-1.71c0.18-0.47,0.37-0.71,0.56-0.72c0.05-0.01,0.18,0.1,0.41,0.32
				l-0.02,1.58c0.01,0.09,0.09,0.34,0.24,0.75c0.03,0.13,0.05,0.23,0.06,0.29l-0.02,0.54l-0.03,0.74l-0.36,0.74
				c-0.62,1.26-0.96,1.97-1.04,2.11c-0.06,0.09-0.45,0.63-1.19,1.59c-1.03,1.62-1.77,2.63-2.22,3.03c-0.31,0.25-0.88,0.5-1.7,0.73
				l-2.66,0.79c-0.82,0.03-2.15-0.46-3.96-1.49c-1.46-0.84-2.63-2.6-3.49-5.28c-0.16-0.54-0.39-2.2-0.68-4.95l-1.16-10.94
				c-0.07-0.75-0.08-3.5-0.02-8.23c0.05-2.91,0.19-5.29,0.41-7.17c0.22-1.83,0.31-3.05,0.24-3.67c-0.05-0.49-0.01-0.81,0.11-0.98
				c0.1-0.14,0.45-0.35,1.04-0.64c1.73-0.9,2.77-1.37,3.14-1.4c0.18-0.02,0.38-0.01,0.61,0.04c0.84,0.16,1.33,0.23,1.46,0.2
				l0.95-0.19c0.07-0.01,0.23,0.11,0.5,0.35c0.99,0.37,1.6,0.63,1.83,0.76c0.23,0.13,0.45,0.38,0.69,0.74
				c0.75,1.11,1.39,2.53,1.92,4.26c0.56,1.86,0.91,3.51,1.05,4.95c0.23,2.39-0.07,5.38-0.91,8.96
				C274,287.52,272.16,291.68,269.38,296.19z M268.77,290.86c2.37-4.56,3.29-9.51,2.78-14.86c-0.28-2.85-0.72-5.2-1.32-7.04
				c-0.34-0.99-0.69-1.46-1.03-1.4c-0.38,0.06-0.65,1.4-0.82,4.03c-0.08,1.21-0.1,5.12-0.04,11.71
				C268.39,285.86,268.53,288.38,268.77,290.86z"/>
			<path class="st0" d="M282.94,274.3l-1.11,0.3c-0.35,0.04-1.02-0.24-2.01-0.83c-1.25-0.77-1.94-1.62-2.04-2.54
				c-0.08-0.62,0.05-1.44,0.38-2.46c0.21-0.65,0.44-1.12,0.67-1.42c0.06-0.07,0.33-0.2,0.82-0.4l1.18-0.51l0.98,0.05
				c0.81,0.01,1.3,0.06,1.49,0.12c0.47,0.24,0.99,0.65,1.56,1.23c0.12,0.12,0.27,0.55,0.45,1.29c0.08,0.28,0.18,0.55,0.3,0.8
				c0.09,0.15,0.13,0.27,0.14,0.35c0.02,0.2-0.26,0.9-0.86,2.11c-0.36,0.93-0.58,1.45-0.65,1.55c-0.21,0.18-0.4,0.28-0.6,0.3
				L282.94,274.3z M286.45,303.98l-0.95,0.24c-0.22,0.03-0.64-0.11-1.25-0.42c-1.4-0.66-2.52-1.8-3.36-3.42
				c-0.55-1.03-0.88-2.04-0.99-3.04c-0.08-0.64-0.13-1.53-0.16-2.67c-0.01-1.63-0.09-3.05-0.23-4.26c-0.07-0.64-0.08-1.36-0.02-2.15
				c-0.21-2.08-0.21-3.58-0.03-4.49c0.1-0.5,0.13-0.87,0.1-1.08c-0.05-0.4-0.16-0.74-0.35-1.03c-0.01-0.04-0.19-0.15-0.54-0.3
				c-0.03-0.02-0.04-0.05-0.05-0.1c0-0.07,0.03-0.18,0.1-0.35c0.04-0.07,0.05-0.12,0.05-0.14c-0.01-0.04-0.02-0.08-0.05-0.13
				c-0.06-0.08-0.08-0.14-0.09-0.19c-0.03-0.2,0.3-0.48,0.97-0.85l0.67,0.02c0.06-0.01,0.24-0.14,0.52-0.39
				c0.06-0.05,0.6-0.27,1.63-0.67c0.28-0.1,0.56-0.16,0.82-0.2c0.31-0.04,0.69,0.13,1.13,0.5c0.5,0.41,1.22,0.93,2.16,1.56
				c0.37,0.25,0.56,0.46,0.58,0.64c0.02,0.18-0.03,0.4-0.16,0.66c-0.34,0.71-0.52,1.22-0.56,1.51c-0.04,0.25-0.03,0.89,0.02,1.91
				c0.04,0.67-0.04,2.07-0.24,4.22c-0.16,1.83-0.15,3.46,0.01,4.9c0.16,1.26,0.45,2.4,0.91,3.41c0.19,0.43,0.46,0.74,0.82,0.95
				c0.31,0.16,0.55,0.23,0.73,0.21c0.37-0.04,0.83-0.41,1.38-1.1c0.52-0.67,0.89-1.32,1.11-1.98c0.27-0.86,0.46-1.35,0.57-1.47
				c0.19-0.23,0.3-0.35,0.32-0.38c0.03-0.07,0.06-0.11,0.09-0.11c0.2-0.02,0.33,0.24,0.4,0.79c0.03,0.24,0.02,0.53,0,0.87
				c-0.01,0.29,0,0.46,0,0.51l0.32,1.81c0.01,0.04-0.13,0.39-0.39,1.02l-0.2,0.56l-0.58,0.77l-0.26,0.37l-0.54,0.57l-1.08,1.34
				l-0.65,0.45c-0.92,0.76-1.48,1.14-1.68,1.13L286.45,303.98z"/>
			<path class="st0" d="M298.64,286.03c-0.02,4.64,0.06,7.61,0.24,8.91c0.2,1.45,0.68,2.78,1.45,3.97c0.41,0.68,0.92,0.98,1.54,0.9
				c0.42-0.06,1.01-0.47,1.78-1.25c0.79-0.78,1.58-2.01,2.39-3.69c0.42-0.86,0.74-1.31,0.96-1.34c0.17-0.02,0.29,0.19,0.36,0.66
				l0.16,1.22l0.09,0.87l0.23,1.21c0.01,0.25-0.3,0.77-0.93,1.57l-0.31,0.72l-0.7,1.07c-0.39,0.77-0.69,1.24-0.89,1.4
				c-0.1,0.08-0.42,0.3-0.95,0.67c-0.16,0.09-0.42,0.33-0.77,0.71c-0.64,0.74-1.18,1.24-1.61,1.51c-0.43,0.27-0.99,0.46-1.67,0.55
				c-1.15,0.15-2.15-0.05-3.01-0.6c-0.96-0.61-1.77-1.21-2.43-1.79c-1.07-0.96-1.7-2.12-1.89-3.51c-0.05-0.38-0.1-0.92-0.12-1.63
				c-0.04-0.62-0.22-2.35-0.54-5.17c-0.22-1.92-0.23-3.42-0.04-4.5c0.18-0.87,0.23-1.52,0.18-1.94c-0.04-0.27-0.29-0.53-0.75-0.81
				c-0.29-0.19-0.47-0.49-0.53-0.9c-0.04-0.33-0.01-0.65,0.11-0.95c0.11-0.33,0.16-0.54,0.15-0.63c0-0.07-0.1-0.24-0.28-0.53
				c-0.26-0.41-0.43-0.94-0.51-1.58c-0.08-0.59,0.04-1.09,0.36-1.49c0.12-0.13,0.5-0.25,1.13-0.36c0.16-0.02,0.2-0.6,0.13-1.73
				l0.1-3.45l-0.14-3.01c0.01-0.58,0-0.94-0.01-1.07c-0.03-0.22-0.22-0.39-0.58-0.53c-0.26-0.1-0.41-0.23-0.42-0.41
				c-0.03-0.22,0.27-0.58,0.89-1.1c0.18-0.49,0.38-0.84,0.6-1.02c0.67-0.63,1.03-0.97,1.07-1.02c0.48-0.58,0.84-0.88,1.05-0.92
				c0.02,0,0.14,0.03,0.35,0.09c0.18,0.04,0.52,0.06,0.98,0.07c0.52,0.01,0.89,0.08,1.1,0.18c0.02,0,0.29,0.18,0.78,0.53
				c0.27,0.18,0.61,0.35,1.01,0.5c0.61,0.21,0.93,0.42,0.95,0.64c0.02,0.11-0.14,0.52-0.47,1.24c-0.27,0.61-0.51,1.96-0.73,4.03
				c-0.21,1.91-0.28,3.18-0.22,3.8c0.08,1.11,0.07,1.81-0.05,2.12c-0.03,0.07-0.05,0.13-0.05,0.17c0.02,0.08,0.06,0.17,0.14,0.25
				c0.08,0.06,0.68,0.06,1.81-0.01c0.85-0.04,1.36,0.08,1.53,0.37c0.12,0.18,0.26,0.48,0.43,0.88c0.17,0.4,0.33,0.69,0.49,0.84
				c0.07,0.06,0.11,0.1,0.11,0.1c0,0.04-0.09,0.21-0.27,0.53l-0.55,0.61l-0.17,0.53c0.04,0.27,0.28,0.54,0.72,0.81
				c0.51,0.31,0.79,0.72,0.84,1.23c0.05,0.67-0.17,1.03-0.65,1.1c-0.13,0.02-0.37,0-0.72-0.07c-0.55-0.12-0.99-0.17-1.3-0.13
				c-0.07,0.01-0.47,0.12-1.23,0.34C299.1,285.88,298.86,285.96,298.64,286.03z"/>
			<path class="st0" d="M319.15,297.06c-1.7,3.21-3.46,4.97-5.28,5.25c-0.94,0.15-1.52,0.22-1.73,0.22c-0.22,0-0.49-0.08-0.83-0.23
				c-2.28-1.01-3.62-2.83-4.02-5.44c-0.25-1.6-0.44-3.42-0.56-5.47c-0.11-1.99-0.23-3.5-0.34-4.54c-0.21-1.45-0.24-2.48-0.12-3.09
				c0.02-0.14,0.03-0.23,0.03-0.28c-0.01-0.04-0.07-0.18-0.2-0.4c-0.37-0.35-0.55-0.57-0.54-0.66l0.09-1.09l0.02-0.95l-0.02-0.54
				c-0.04-0.1-0.19-0.29-0.46-0.56c-0.11-0.1-0.16-0.19-0.18-0.28c-0.03-0.2,0.12-0.46,0.45-0.78c0.14-0.13,0.73-0.36,1.81-0.69
				l1.54-0.51c0.39-0.06,0.96,0.11,1.7,0.51c0.83,0.43,1.28,0.73,1.35,0.9l0.39,0.72l0.88,0.47c0.47,0.26,0.72,0.57,0.75,0.93
				c0.02,0.09-0.03,0.19-0.12,0.33l-0.03,0.03l-0.55-0.05c-0.22,0.04-0.29,0.34-0.2,0.91c0.06,0.53,0.04,1.59-0.07,3.18
				c-0.03,0.54,0.01,1.27,0.1,2.18c-0.16,1.26-0.23,2.12-0.2,2.56c0.02,0.24,0.1,1.06,0.25,2.45l0.18,1.83
				c0.15,0.94,0.59,1.78,1.31,2.52c0.18,0.17,0.48,0.39,0.91,0.63c0.17,0.09,0.27,0.13,0.29,0.13c0.07-0.01,0.13-0.08,0.21-0.2
				c0.08-0.17,0.25-0.41,0.49-0.72c0.58-0.85,0.95-1.53,1.1-2.02c0.33-1.13,0.26-3.72-0.22-7.76c-0.26-2.23-0.37-4.03-0.34-5.41
				c-0.03-1.05,0-1.89,0.07-2.51c0.12-0.72,0.14-1.29,0.07-1.73c-0.04-0.29-0.17-0.62-0.36-0.99c-0.12-0.23-0.2-0.4-0.21-0.51
				c-0.03-0.22,0.06-0.41,0.28-0.58c0.07-0.01,0.2,0.03,0.4,0.14c0.1,0.05,0.17,0.08,0.21,0.07c0.31-0.05,0.99-0.49,2.05-1.33
				c0.3-0.23,0.52-0.35,0.65-0.37c0.37-0.06,1.04,0.15,2.02,0.62c0.81,0.42,1.25,0.84,1.32,1.28c0.01,0.04-0.01,0.15-0.06,0.31
				c-0.07,0.28-0.09,0.52-0.05,0.71c0.03,0.18,0.1,0.41,0.24,0.68c0.09,0.16,0.14,0.28,0.15,0.34c0.01,0.09,0,0.23-0.03,0.41
				c-0.39,2.13-0.13,6.78,0.77,13.94l0.41,3.44l1.39,6.9c0.17,1.07-0.03,2.87-0.6,5.39c-0.16,0.61-0.37,1.08-0.65,1.42
				c-0.19,0.23-0.38,0.45-0.57,0.67c-0.54,0.58-1.15,1.36-1.85,2.35c-0.85,1.17-1.4,1.88-1.65,2.15c-0.55,0.54-1.09,0.85-1.64,0.93
				c-1.19,0.19-2.72-0.34-4.6-1.57c-1.9-1.25-2.93-2.38-3.1-3.39c-0.06-0.44,0.04-0.95,0.34-1.54c0.12-0.25,0.23-0.64,0.35-1.2
				c0.07-0.42,0.31-0.65,0.7-0.72c0.18-0.03,0.37,0.07,0.58,0.28c0.05,0.04,0.3,0.5,0.76,1.4c0.13,0.29,0.5,0.67,1.1,1.11
				c0.6,0.44,1.02,0.67,1.27,0.68l2.02,0.16c0.7-0.11,1.21-0.96,1.52-2.53c0.28-1.39,0.31-2.75,0.1-4.06l-0.89-4.55l-0.13-0.62
				L319.15,297.06z"/>
			<path class="st0" d="M340.54,263.01l-0.05,0.08l-0.34,0.16l-1.24,0.78c-0.46,0.22-0.75,0.43-0.9,0.62l-0.55,0.82
				c-0.29,0.28-0.45,0.42-0.49,0.43c-0.02,0.01-0.46-0.18-1.3-0.56c-0.54-0.24-0.97-0.72-1.26-1.46c-0.18-0.48-0.51-0.9-0.99-1.27
				c-0.4-0.28-0.65-0.54-0.77-0.77c-0.08-0.23-0.17-0.36-0.24-0.4l-0.08-0.05l0.02-0.07c0.08-0.17,0.2-0.33,0.35-0.45
				c0.52-0.35,1.49-1.11,2.92-2.29c2.93-2.42,5.85-4.28,8.76-5.59c2.52-1.15,4.57-1.87,6.16-2.17c2.24-0.43,4.43-0.15,6.54,0.84
				c1.05,0.5,1.96,1.3,2.73,2.39c0.43,0.59,0.7,0.93,0.8,1l0.89,0.57c0.3,0.19,0.9,0.92,1.77,2.17c0.94,1.35,1.54,2.73,1.81,4.13
				c0.28,1.44,0.15,3.35-0.38,5.74c-0.56,2.6-1.66,4.79-3.28,6.57c-1.08,1.21-2.16,2.3-3.24,3.27c-0.86,0.82-1.81,1.35-2.84,1.6
				c-0.37,0.07-0.78,0.3-1.23,0.68c-0.34,0.2-0.53,0.31-0.55,0.31c-0.07,0.02-0.16,0-0.28-0.05c-0.35-0.09-0.68-0.1-0.99-0.05
				c-0.51,0.07-0.79,0.09-0.84,0.06l-0.45-0.39c-0.16-0.15-0.32-0.22-0.48-0.21c-0.34,0.02-0.44,0.34-0.32,0.98
				c0.02,0.11,0.06,0.26,0.12,0.45c0.16,0.47,0.29,1,0.4,1.59l0.74,4c0.84,3.43,1.28,5.2,1.3,5.31c0.13,0.43,0.5,0.96,1.12,1.58
				c0.13,0.23,0.2,0.35,0.21,0.37l-0.01,0.31c-0.03,0.52-0.07,0.85-0.11,0.97c-0.03,0.09-0.17,0.3-0.43,0.62
				c-0.2,0.47-0.42,0.8-0.66,0.98c-0.55,0.44-0.92,0.69-1.12,0.72c-0.42,0.08-1.02-0.01-1.81-0.26c-0.41-0.13-0.82-0.43-1.23-0.92
				c-0.33-0.41-0.58-0.66-0.75-0.74c-0.07-0.03-0.4-0.07-0.97-0.12c-0.6-0.04-1.13-0.27-1.6-0.68c-0.29-0.26-0.45-0.45-0.48-0.58
				c-0.02-0.11,0.16-0.34,0.55-0.71c0.09-0.09,0.12-0.22,0.09-0.39c-0.01-0.09-0.07-0.21-0.17-0.37c-0.14-0.31-0.26-0.66-0.34-1.06
				c-0.24-1.26-0.49-2.95-0.74-5.05c-0.2-1.75-0.52-4.04-0.98-6.87c-1.1-6.66-1.77-11.34-1.99-14.03c-0.03-0.49-0.06-0.86-0.11-1.1
				c-0.16-0.85-0.34-1.31-0.54-1.39L340.54,263.01z M346.52,259.89c0.07,0.01,0.14,0.03,0.21,0.06c0.94,0.18,1.48,0.56,1.61,1.15
				c0.01,0.05-0.1,0.29-0.33,0.75c-0.1,0.17-0.1,0.55,0.01,1.11c0.08,0.55,0.19,1.75,0.32,3.6c0.19,2.73,0.44,4.92,0.76,6.57
				c0.17,0.89,0.54,1.28,1.11,1.18c0.58-0.11,1.37-0.54,2.34-1.26c2.23-1.7,3.98-3.96,5.27-6.79c0.97-2.11,1.24-4.3,0.8-6.56
				c-0.17-0.91-0.37-1.49-0.57-1.72l-0.56-0.6c-0.46-0.52-0.78-0.81-0.95-0.87c-0.94-0.29-2.07-0.31-3.37-0.06
				C351.96,256.67,349.74,257.82,346.52,259.89z"/>
			<path class="st0" d="M370.98,259.44l-1.07,0.4c-0.35,0.07-1.04-0.15-2.08-0.66c-1.32-0.65-2.07-1.44-2.26-2.35
				c-0.12-0.61-0.08-1.44,0.16-2.48c0.16-0.66,0.34-1.16,0.55-1.47c0.05-0.08,0.31-0.23,0.78-0.47l1.13-0.61l0.98-0.03
				c0.81-0.06,1.31-0.06,1.5-0.01c0.49,0.19,1.05,0.55,1.66,1.08c0.14,0.11,0.33,0.52,0.57,1.24c0.1,0.28,0.23,0.53,0.37,0.77
				c0.09,0.14,0.15,0.25,0.17,0.34c0.04,0.2-0.19,0.92-0.67,2.18c-0.27,0.97-0.44,1.5-0.52,1.61c-0.18,0.2-0.38,0.32-0.57,0.36
				L370.98,259.44z M377.12,288.68l-0.92,0.33c-0.22,0.04-0.65-0.06-1.29-0.31c-1.45-0.54-2.67-1.57-3.65-3.11
				c-0.64-0.98-1.06-1.96-1.26-2.93c-0.13-0.63-0.26-1.51-0.38-2.65c-0.16-1.62-0.36-3.03-0.62-4.23c-0.13-0.63-0.2-1.35-0.21-2.14
				c-0.39-2.05-0.53-3.54-0.43-4.47c0.05-0.51,0.06-0.88,0.01-1.1c-0.08-0.39-0.23-0.72-0.45-0.99c-0.01-0.04-0.19-0.13-0.56-0.25
				c-0.03-0.02-0.05-0.05-0.06-0.09c-0.01-0.06,0.01-0.18,0.06-0.35c0.03-0.08,0.05-0.12,0.04-0.15c-0.01-0.04-0.03-0.08-0.06-0.12
				c-0.06-0.07-0.1-0.13-0.11-0.18c-0.04-0.19,0.26-0.51,0.9-0.94l0.67-0.04c0.07-0.02,0.23-0.17,0.49-0.44
				c0.05-0.06,0.58-0.32,1.57-0.81c0.26-0.12,0.53-0.21,0.79-0.27c0.31-0.07,0.7,0.07,1.18,0.4c0.53,0.37,1.29,0.82,2.29,1.36
				c0.39,0.21,0.6,0.41,0.63,0.58c0.04,0.17,0.01,0.4-0.1,0.66c-0.27,0.74-0.42,1.26-0.42,1.55c-0.02,0.25,0.05,0.89,0.19,1.9
				c0.09,0.66,0.14,2.07,0.14,4.22c0,1.84,0.15,3.46,0.44,4.88c0.26,1.24,0.67,2.35,1.21,3.32c0.22,0.41,0.52,0.7,0.89,0.87
				c0.32,0.14,0.57,0.19,0.75,0.15c0.37-0.08,0.8-0.49,1.28-1.22c0.46-0.71,0.77-1.4,0.92-2.07c0.21-0.88,0.35-1.39,0.43-1.52
				c0.18-0.24,0.28-0.37,0.3-0.4c0.02-0.08,0.05-0.11,0.07-0.12c0.19-0.04,0.35,0.2,0.47,0.75c0.05,0.24,0.08,0.52,0.07,0.87
				c0.02,0.29,0.03,0.46,0.04,0.51l0.47,1.77c0.02,0.04-0.08,0.4-0.29,1.05l-0.15,0.58l-0.51,0.82l-0.23,0.39l-0.48,0.61l-0.96,1.42
				l-0.61,0.51c-0.85,0.83-1.37,1.26-1.57,1.28L377.12,288.68z"/>
			<path class="st0" d="M398.9,286.64c-0.08,0.02-0.28,0.13-0.6,0.34c-0.32,0.18-0.62,0.31-0.88,0.37
				c-0.73,0.16-1.76,0.25-3.07,0.27c-2.06,0.05-3.76,0.23-5.11,0.52c-0.78,0.18-1.77,0.6-2.99,1.28c-0.24,0.14-0.41,0.23-0.52,0.25
				c-0.54,0.12-1.06,0.05-1.55-0.2c-0.36-0.19-0.57-0.42-0.62-0.68c-0.06-0.24,0.09-0.64,0.45-1.19c0.08-0.13,0.1-0.3,0.06-0.49
				c-0.07-0.33-0.43-0.82-1.07-1.47c-0.32-0.43-0.48-0.65-0.49-0.67c-0.07-0.31,0.63-1.66,2.1-4.05c0.52-0.84,1.39-2.51,2.62-4.99
				c1.2-2.38,1.96-4.1,2.26-5.17c0.18-0.54,0.29-0.87,0.33-1c0.48-1.22,0.73-1.85,0.73-1.9c0.04-0.37,0.08-0.61,0.15-0.72l0.02-0.07
				l-0.05-0.09c-0.18-0.26-0.73-0.28-1.65-0.07c-0.13,0.03-1.19,0.37-3.16,1.01c-1.84,0.59-3.1,1.13-3.77,1.62
				c-0.12,0.07-0.2,0.11-0.24,0.12c-0.11,0.02-0.29,0-0.53-0.08c-0.25-0.1-0.39-0.21-0.41-0.32c-0.02-0.07,0.12-0.5,0.39-1.32
				c0.04-0.12,0.06-0.19,0.06-0.21c-0.01-0.05-0.17-0.16-0.45-0.34l-0.21-0.16c-0.09-0.07-0.14-0.13-0.18-0.17l-0.08-0.05
				l-0.09-1.17c-0.02-0.07-0.13-0.21-0.33-0.44c-0.21-0.23-0.35-0.46-0.4-0.7c-0.07-0.33-0.03-0.64,0.13-0.95
				c0.17-0.38,0.48-0.62,0.94-0.72c0.24-0.06,0.54-0.1,0.89-0.13c0.27-0.02,0.48-0.04,0.64-0.08c0.15-0.03,0.4-0.11,0.76-0.24
				c0.44-0.17,1.52-0.5,3.23-0.99c1.26-0.37,2.24-0.7,2.95-1c0.94-0.37,1.45-0.56,1.51-0.57l3.28-0.46l2-0.51
				c0.78-0.17,1.24,0.06,1.38,0.68c0.04,0.18-0.02,0.6-0.16,1.27c-0.04,0.12-0.05,0.22-0.04,0.28c0.02,0.09,0.08,0.2,0.18,0.33
				c0.16,0.17,0.24,0.31,0.26,0.42c0.04,0.17-0.01,0.38-0.13,0.61c-0.09,0.13-0.13,0.22-0.11,0.26c0.01,0.07,0.15,0.17,0.41,0.32
				c0.25,0.18,0.37,0.29,0.36,0.37l-0.01,0.1c-0.05,0.42-0.17,0.82-0.38,1.21c-1.01,1.8-2.17,4.31-3.47,7.56
				c-0.82,2.05-1.51,3.59-2.08,4.63c-1.13,2.09-1.75,3.45-1.86,4.06c-0.07,0.31-0.14,0.54-0.23,0.67c-0.05,0.06-0.08,0.09-0.07,0.12
				c0.03,0.15,0.22,0.23,0.56,0.22c0.39,0,1.79-0.21,4.19-0.66l2.71-0.4c0.63-0.14,1.24-0.38,1.85-0.72c0.39-0.22,0.68-0.36,0.9-0.4
				c0.28-0.06,0.49-0.01,0.65,0.16c0.23,0.22,0.36,0.41,0.39,0.56c0.06,0.24-0.19,0.79-0.72,1.66l-0.26,0.67
				c0.01,0.04,0.05,0.09,0.13,0.14c0.03,0.02,0.11,0.12,0.27,0.31c0.13,0.16,0.35,0.33,0.66,0.54c0.06,0.04,0.08,0.07,0.09,0.08
				l-0.03,0.15l-0.05,0.42l-0.11,0.4l0.15,0.38c0.02,0.11-0.01,0.24-0.12,0.4c-0.21,0.39-0.39,0.59-0.55,0.6L398.9,286.64z"/>
			<path class="st0" d="M419.12,281.93c-0.09,0.02-0.28,0.13-0.6,0.35c-0.32,0.19-0.61,0.32-0.87,0.38
				c-0.73,0.17-1.76,0.28-3.07,0.32c-2.06,0.07-3.76,0.27-5.1,0.59c-0.78,0.19-1.77,0.63-2.97,1.32c-0.24,0.15-0.41,0.24-0.52,0.26
				c-0.55,0.13-1.07,0.07-1.55-0.18c-0.37-0.19-0.58-0.41-0.64-0.67c-0.06-0.24,0.09-0.64,0.44-1.2c0.08-0.13,0.1-0.3,0.05-0.5
				c-0.07-0.32-0.44-0.8-1.09-1.45c-0.33-0.42-0.49-0.65-0.51-0.67c-0.07-0.3,0.62-1.66,2.05-4.08c0.51-0.85,1.36-2.53,2.55-5.02
				c1.17-2.4,1.89-4.14,2.19-5.21c0.17-0.54,0.27-0.87,0.31-1c0.46-1.22,0.7-1.86,0.71-1.91c0.02-0.37,0.07-0.61,0.14-0.72
				l0.02-0.07l-0.05-0.09c-0.17-0.25-0.73-0.27-1.65-0.05c-0.13,0.03-1.18,0.38-3.14,1.05c-1.84,0.62-3.09,1.18-3.75,1.67
				c-0.12,0.08-0.2,0.12-0.24,0.13c-0.11,0.02-0.29,0-0.53-0.08c-0.26-0.1-0.4-0.2-0.42-0.31c-0.02-0.07,0.1-0.51,0.37-1.32
				c0.04-0.13,0.05-0.2,0.05-0.2c-0.01-0.07-0.17-0.18-0.46-0.36l-0.2-0.15c-0.09-0.07-0.15-0.13-0.18-0.17l-0.08-0.05l-0.11-1.17
				c-0.02-0.07-0.13-0.21-0.34-0.44c-0.21-0.22-0.35-0.45-0.4-0.69c-0.08-0.32-0.04-0.64,0.12-0.95c0.16-0.38,0.47-0.63,0.92-0.73
				c0.24-0.05,0.54-0.1,0.89-0.14c0.27-0.01,0.48-0.04,0.64-0.08c0.15-0.04,0.4-0.12,0.76-0.25c0.44-0.17,1.51-0.52,3.22-1.03
				c1.25-0.39,2.23-0.73,2.94-1.04c0.94-0.38,1.44-0.58,1.5-0.59l3.27-0.5l1.99-0.54c0.78-0.18,1.24,0.04,1.39,0.66
				c0.04,0.18-0.01,0.6-0.15,1.27c-0.04,0.13-0.05,0.22-0.04,0.28c0.02,0.09,0.09,0.2,0.18,0.33c0.16,0.17,0.24,0.31,0.27,0.42
				c0.04,0.17-0.01,0.38-0.13,0.61c-0.08,0.13-0.12,0.22-0.11,0.27c0.01,0.06,0.15,0.17,0.41,0.31c0.25,0.17,0.37,0.29,0.36,0.36
				l-0.01,0.11c-0.04,0.42-0.16,0.82-0.36,1.21c-0.99,1.81-2.12,4.35-3.37,7.61c-0.79,2.06-1.46,3.61-2.02,4.65
				c-1.1,2.11-1.7,3.47-1.8,4.09c-0.07,0.31-0.14,0.53-0.22,0.67c-0.06,0.06-0.08,0.1-0.08,0.1c0.03,0.17,0.23,0.24,0.57,0.23
				c0.39,0,1.78-0.24,4.17-0.71l2.71-0.43c0.63-0.15,1.23-0.39,1.84-0.74c0.38-0.23,0.68-0.37,0.9-0.42
				c0.28-0.07,0.5-0.02,0.65,0.15c0.24,0.22,0.37,0.4,0.41,0.56c0.05,0.24-0.18,0.79-0.7,1.67l-0.25,0.68
				c0.01,0.05,0.05,0.09,0.13,0.14c0.03,0.02,0.12,0.12,0.28,0.31c0.13,0.16,0.35,0.33,0.68,0.53c0.05,0.04,0.08,0.06,0.08,0.06
				l-0.03,0.17l-0.04,0.42l-0.1,0.4l0.15,0.38c0.02,0.1-0.01,0.24-0.11,0.4c-0.2,0.39-0.39,0.59-0.54,0.61L419.12,281.93z"/>
			<path class="st0" d="M435.33,271.73c-0.25,0.65-0.64,1.99-1.16,3.99c-0.21,0.72-0.7,1.59-1.48,2.61
				c-0.77,1.02-1.39,1.59-1.84,1.7c-0.3,0.08-0.87,0.05-1.7-0.09c-1.45-0.23-2.71-0.99-3.77-2.28c-1.05-1.27-1.81-2.81-2.26-4.63
				c-0.42-1.7-0.82-4.7-1.16-9.01c-0.24-3.17-0.17-5.46,0.24-6.86c0.21-0.72,0.58-1.67,1.13-2.86c0.32-0.74,0.63-1.23,0.93-1.47
				c1.77-1.43,2.86-2.2,3.27-2.3c0.6-0.15,1.48,0,2.65,0.44c0.4,0.15,0.76,0.36,1.05,0.63c0.26,0.22,0.41,0.31,0.45,0.3
				c0.45-0.21,0.73-0.33,0.84-0.38c0.4,0.22,0.72,0.37,0.98,0.47c0.24,0.05,0.94-0.04,2.1-0.29c1-0.21,1.77-0.13,2.32,0.24
				c0.11,0.07,0.29,0.34,0.56,0.82l0.38,0.28l0.11,0.18l0.06,0.09l-0.03,0.15l-0.14,0.55l-0.17,0.7l0.38,1.08
				c0.03,0.13,0.01,0.37-0.06,0.73c-0.15,0.93-0.15,2.06,0.03,3.36c0.29,2.01,0.45,3.51,0.44,4.52c0.02,0.44,0.06,0.78,0.12,1.04
				c0.12,0.49,0.43,1.22,0.92,2.17c0.73,1.35,1.39,1.95,1.97,1.81c0.27-0.07,0.6-0.47,0.97-1.21c1.05-2.07,1.68-3.61,1.86-4.62
				c0.1-0.53,0.21-0.81,0.34-0.84c0.04-0.01,0.12,0.04,0.24,0.14c0.12,0.13,0.2,0.24,0.22,0.32c0.04,0.15,0.05,0.41,0.06,0.78
				c0,0.28,0.04,0.55,0.11,0.83c0.06,0.26,0.15,0.51,0.26,0.76c0.15,0.33,0.23,0.53,0.25,0.59c0.11,0.43,0.07,0.83-0.11,1.19
				c-1.03,2.35-1.63,3.63-1.78,3.85c-0.14,0.19-0.4,0.37-0.79,0.54c-0.05,0.01-0.32,0.38-0.83,1.1c-0.23,0.36-0.65,0.69-1.26,1.01
				c-0.55,0.25-0.91,0.45-1.05,0.61c-0.14,0.1-0.22,0.16-0.27,0.17l-2.31-0.28C437.59,274.26,436.57,273.38,435.33,271.73z
				 M429.71,254.18c-0.24,0.04-0.41,0.14-0.5,0.29c-0.08,0.16-0.16,0.51-0.23,1.06c-0.31,1.33-0.47,2.68-0.47,4.03
				c0,3.76,0.04,6.13,0.09,7.14c0.06,1.01,0.24,2.13,0.56,3.38c0.41,1.63,0.98,2.84,1.7,3.62c0.31,0.31,0.58,0.44,0.82,0.38
				c0.19-0.05,0.35-0.31,0.49-0.78c0.19-0.62,0.47-1.25,0.83-1.89l-0.01-0.55l0.18-1.08c0.12-1.98,0.11-3.27-0.02-3.88l0-0.82
				l-0.23-1.32c0.04-0.29,0.02-0.58-0.05-0.88c-0.1-0.39-0.15-0.9-0.15-1.54c-0.01-1.3-0.1-2.41-0.29-3.33
				c-0.01-0.77-0.04-1.24-0.07-1.39c-0.24-0.97-0.57-1.67-0.97-2.09c-0.09-0.09-0.41-0.12-0.95-0.07
				C430.05,254.25,429.8,254.15,429.71,254.18z"/>
		</g>
	</g>
	<g>
		<path class="st4" d="M94.17,188.6l-3.47-0.02c-9.62-0.06-19.1-0.19-28.18-0.38l-2.91-0.06l-0.22-2.9l-6.3-83.88l-0.22-2.9
			l2.87-0.49c3.84-0.66,7.69-1.32,11.54-1.96l3.46-0.57l0.26,3.49l5.39,71.83c4.47-0.04,8.94-0.1,13.41-0.16l3.02-0.05l0.23,3.01
			l0.87,11.59L94.17,188.6L94.17,188.6z"/>
		<path class="st0" d="M62.58,184.99c-2.1-27.96-4.2-55.92-6.3-83.88c3.84-0.66,7.67-1.31,11.52-1.95
			c1.87,24.94,3.74,49.88,5.62,74.82c5.47-0.05,10.94-0.11,16.42-0.19c0.29,3.86,0.58,7.72,0.87,11.58
			C81.33,185.31,71.96,185.19,62.58,184.99z"/>
		<path class="st4" d="M131.77,188.33l-3.41,0.04c-9.61,0.12-19.45,0.16-29.22,0.14l-2.96-0.01l-0.22-2.96l-6.75-89.96l-0.22-2.96
			l2.93-0.45c9.25-1.42,18.63-2.8,27.88-4.08l3.38-0.47l0.26,3.41l0.91,12.18l0.23,3.05l-3.03,0.37c-4.43,0.54-8.85,1.1-13.27,1.67
			l1.47,19.53l8.26-0.73l3.23-0.28l0.24,3.23l0.91,12.1l0.24,3.21l-3.22,0.22l-5.74,0.4l-2.55,0.18l1.8,23.98
			c4.8-0.11,9.61-0.23,14.41-0.37l3.06-0.09l0.23,3.05l0.92,12.2L131.77,188.33L131.77,188.33z"/>
		<path class="st0" d="M92.39,95.34c9.27-1.43,18.55-2.79,27.84-4.08c0.3,4.06,0.61,8.11,0.91,12.18
			c-5.44,0.66-10.88,1.35-16.31,2.05c0.65,8.6,1.29,17.2,1.94,25.8c3.83-0.34,7.66-0.67,11.49-1.01c0.3,4.03,0.61,8.06,0.91,12.1
			c-3.84,0.27-7.67,0.53-11.5,0.8c0.76,10.08,1.51,20.15,2.27,30.23c5.82-0.13,11.64-0.27,17.47-0.44c0.31,4.07,0.61,8.13,0.92,12.2
			c-9.72,0.11-19.45,0.16-29.17,0.14C96.89,155.32,94.64,125.33,92.39,95.34z"/>
		<path class="st4" d="M153.45,189.35c-0.35,0.03-0.72,0.04-1.08,0.05c-4.42,0.1-8.54-1.19-12.23-3.83
			c-4.28-3.06-7.08-7.61-8.32-13.5c-0.37-1.8-0.74-5.39-1.16-10.98l-3.5-46.64c-0.67-8.84-0.46-11.79-0.24-13.24
			c0.78-5.84,3.39-10.5,7.75-13.82c2.88-2.22,6.17-3.58,9.79-4.05c0.38-0.05,0.75-0.09,1.11-0.11c4.09-0.31,7.87,0.63,11.23,2.78
			c4.35,2.79,7.19,7.28,8.45,13.34c0.36,1.83,0.75,5.52,1.19,11.32l3.63,48.29c0.69,9.15,0.48,12.16,0.27,13.62
			c-0.79,6.02-3.46,10.62-7.93,13.64C159.78,188.04,156.75,189.1,153.45,189.35L153.45,189.35z M146.27,102.23l-0.09,0.01
			c-0.57,0.07-0.93,0.24-1.27,1c-0.04,0.1-0.39,1.08-0.16,4.04l4.39,58.42c0.22,2.98,0.71,3.82,0.77,3.9
			c0.49,0.76,0.88,0.81,1.34,0.79c0.02,0,0.03,0,0.05,0c0.5-0.04,0.68-0.12,0.92-0.66c0.08-0.16,0.47-0.97,0.24-3.97l-4.43-59.02
			c-0.23-3.12-0.73-3.9-0.75-3.93C146.89,102.21,146.65,102.2,146.27,102.23L146.27,102.23z"/>
		<path class="st0" d="M163.25,110.9c1.21,16.1,2.42,32.19,3.63,48.29c0.49,6.57,0.59,10.88,0.29,12.91
			c-0.67,5.13-2.86,8.95-6.55,11.45c-2.45,1.69-5.22,2.57-8.32,2.64c-3.75,0.09-7.18-1.01-10.29-3.23
			c-3.62-2.6-5.97-6.44-7.05-11.56c-0.33-1.62-0.69-5.13-1.1-10.56c-1.17-15.55-2.33-31.09-3.5-46.64
			c-0.48-6.35-0.57-10.52-0.27-12.52c0.68-5.04,2.86-8.95,6.53-11.75c2.44-1.87,5.18-3.02,8.26-3.42c3.76-0.48,7.16,0.24,10.21,2.19
			c3.6,2.32,5.95,6.09,7.04,11.29C162.46,101.65,162.83,105.29,163.25,110.9z M155.65,165.5c-1.48-19.67-2.95-39.35-4.43-59.02
			c-0.2-2.66-0.62-4.48-1.27-5.46c-1.01-1.51-2.39-2.17-4.13-1.97c-1.78,0.2-3.06,1.17-3.83,2.86c-0.49,1.15-0.63,3.01-0.44,5.6
			c1.46,19.47,2.92,38.94,4.39,58.42c0.19,2.59,0.61,4.38,1.26,5.4c1.02,1.56,2.4,2.32,4.15,2.26c1.79-0.06,3.05-0.92,3.79-2.56
			C155.68,169.96,155.85,168.12,155.65,165.5z"/>
		<path class="st4" d="M217.45,185.29l-3.26,0.18c-3.9,0.21-7.79,0.42-11.68,0.62l-2.42,0.12l-0.78-2.29
			c-3.42-10.1-6.56-19.32-9.51-27.98l2.05,27.36l0.25,3.3l-3.31,0.14c-3.89,0.17-7.79,0.32-11.69,0.47l-3.08,0.11l-0.23-3.07
			l-7.43-98.98l-0.23-3.08l3.07-0.35c3.35-0.38,6.7-0.75,10.05-1.11l2.55-0.27l0.83,2.42c3.69,10.75,7.51,21.91,11.52,33.72
			c-0.85-11.34-1.7-22.68-2.55-34.02l-0.23-3.12l3.11-0.31c3.88-0.39,7.76-0.77,11.64-1.13l3.25-0.31l0.24,3.26l7.59,101.08
			L217.45,185.29L217.45,185.29z"/>
		<path class="st0" d="M206.41,81.19c2.53,33.7,5.06,67.39,7.59,101.08c-3.89,0.22-7.78,0.43-11.66,0.62
			c-5.88-17.36-11.76-34.61-17.62-51.71c1.31,17.45,2.62,34.9,3.93,52.35c-3.89,0.16-7.78,0.32-11.67,0.46
			c-2.48-33-4.95-65.99-7.43-98.98c3.34-0.38,6.68-0.75,10.03-1.11c6.54,19.03,13.09,38.27,19.66,57.65
			c-1.49-19.75-2.97-39.49-4.45-59.24C198.66,81.93,202.54,81.56,206.41,81.19z"/>
		<path class="st4" d="M252.24,182.97l-3.83,0.28l-2.91,0.22l-0.48-2.89l-2.42-14.53l-0.89-5.33c-1.53,0.11-3.05,0.22-4.59,0.33
			l-0.25,16.24l-0.06,3.83l-0.05,2.95l-2.94,0.2c-3.75,0.25-7.49,0.48-11.25,0.71l-3.53,0.22l0.13-3.53
			c1.24-34.02,2.49-68.15,3.72-102.35l0.1-2.84l2.83-0.24c5.03-0.42,10.05-0.82,15.08-1.21l2.88-0.22l0.52,2.84l4.56,24.9
			l13.93,76.06l0.64,3.49l-3.54,0.28C257.34,182.59,254.79,182.78,252.24,182.97L252.24,182.97z M237.42,141.35l1.03-0.08
			l-0.98-6.07L237.42,141.35L237.42,141.35z"/>
		<path class="st0" d="M233.96,158.08c-0.12,7.67-0.24,15.34-0.36,23c-3.74,0.25-7.49,0.48-11.23,0.71
			c1.25-34.02,2.49-68.16,3.72-102.35c5.02-0.43,10.04-0.82,15.06-1.21c6.16,33.66,12.33,67.33,18.5,100.96
			c-3.83,0.31-7.64,0.59-11.47,0.88c-1.26-7.58-2.52-15.16-3.79-22.74C240.91,157.58,237.43,157.83,233.96,158.08z M242.17,144.22
			c-2.53-15.66-5.05-31.31-7.57-46.96c-0.14,15.86-0.27,31.71-0.42,47.55C236.85,144.61,239.51,144.41,242.17,144.22z"/>
		<path class="st4" d="M264.98,181.98l-0.24-3.22L257.1,77.1l-0.24-3.22l3.22-0.22c3.81-0.26,7.62-0.5,11.43-0.73
			c6.99-0.42,12.01,0.44,15.36,2.65c6.7,4.42,10.47,13.31,11.51,27.2c0.51,6.75,0.44,11.9-0.19,15.74
			c-0.51,2.87-1.72,6.09-3.67,9.83c3.83,15.45,7.66,30.84,11.47,46.16l0.9,3.59l-3.69,0.37c-4.16,0.42-8.33,0.83-12.49,1.23
			l-2.79,0.26l-0.63-2.74c-2.23-9.66-4.47-19.34-6.7-29.04l2.18,29.08l0.24,3.15l-3.15,0.28c-3.88,0.35-7.77,0.68-11.66,1.01
			L264.98,181.98L264.98,181.98z M276.39,92.38l1.82,24.3c1.9-0.48,2.26-1.44,2.43-1.91c0.1-0.28,0.63-2.36-0.12-12.26
			c-0.5-6.63-1.39-8.41-1.65-8.8C278.65,93.35,278.14,92.58,276.39,92.38L276.39,92.38z"/>
		<path class="st0" d="M260.3,76.86c3.8-0.25,7.6-0.5,11.41-0.73c6.23-0.38,10.7,0.34,13.41,2.13c5.75,3.8,9.12,12.04,10.07,24.76
			c0.48,6.44,0.43,11.42-0.16,14.97c-0.49,2.76-1.8,6.06-3.91,9.94c3.93,15.85,7.85,31.64,11.77,47.36
			c-4.15,0.42-8.32,0.83-12.47,1.22c-3.3-14.27-6.6-28.58-9.91-42.93c-1.44,0.41-2.83,0.69-4.16,0.84
			c1.08,14.36,2.16,28.72,3.23,43.08c-3.88,0.35-7.76,0.68-11.64,1.01C265.39,144.63,262.84,110.74,260.3,76.86z M275.27,120.24
			c0.55-0.04,1.1-0.08,1.64-0.12c3.54-0.26,5.78-1.66,6.73-4.21c0.61-1.68,0.63-6.22,0.08-13.63c-0.4-5.33-1.13-8.78-2.18-10.35
			c-1.35-2.04-3.66-2.98-6.96-2.76c-0.55,0.03-1.1,0.07-1.65,0.11C273.72,99.59,274.49,109.91,275.27,120.24z"/>
		<path class="st4" d="M307.73,178.02l-0.25-3.29l-7.51-100.04l-0.25-3.29l3.3-0.15c4.16-0.19,8.32-0.36,12.48-0.52
			c5.77-0.22,10.06,0.45,13.13,2.05c7.43,3.82,11.63,11.45,12.47,22.66l3.95,52.65c0.61,8.1-0.92,14.75-4.54,19.79
			c-2.2,3.14-4.95,5.33-8.16,6.48c-2.43,0.92-5.45,1.59-8.93,1.98c-4.14,0.46-8.28,0.91-12.42,1.35L307.73,178.02L307.73,178.02z
			 M319.26,90.01l5.01,66.71c1-0.25,1.98-0.68,2.36-1.38c0.22-0.43,0.72-1.83,0.43-5.62l-3.99-53.2c-0.33-4.45-1.37-5.55-1.57-5.73
			C321.03,90.37,320.26,90.12,319.26,90.01L319.26,90.01z"/>
		<path class="st0" d="M303.17,74.45c4.16-0.19,8.31-0.36,12.46-0.52c5.17-0.2,9.01,0.38,11.52,1.68c6.42,3.3,10,9.97,10.76,20.06
			c1.32,17.55,2.64,35.1,3.95,52.65c0.55,7.38-0.76,13.26-3.94,17.68c-1.84,2.63-4.06,4.41-6.64,5.34c-2.23,0.84-4.96,1.45-8.2,1.81
			c-4.13,0.46-8.27,0.91-12.4,1.34C308.18,141.14,305.67,107.8,303.17,74.45z M321.33,160.36c0.48-0.05,0.97-0.1,1.46-0.15
			c3.45-0.35,5.67-1.48,6.67-3.39c0.78-1.49,1.05-3.94,0.79-7.36c-1.33-17.73-2.66-35.47-3.99-53.2c-0.3-3.99-1.19-6.63-2.68-7.91
			c-1.36-1.19-3.47-1.73-6.31-1.6c-0.49,0.03-0.98,0.05-1.47,0.07C317.65,111.34,319.49,135.85,321.33,160.36z"/>
		<path class="st4" d="M367.01,172.38c-3.98,0.3-7.7-0.61-11.06-2.7c-4.35-2.7-7.2-7.14-8.46-13.18c-0.36-1.82-0.74-5.46-1.17-11.15
			l-3.57-47.53c-0.68-9.05-0.47-12-0.25-13.43c0.81-5.96,3.51-10.46,8-13.35c2.58-1.68,5.53-2.67,8.74-2.91
			c0.42-0.03,0.84-0.05,1.28-0.06c4.46-0.06,8.55,1.21,12.17,3.78c4.28,3.03,7.08,7.48,8.31,13.22c0.35,1.76,0.73,5.26,1.14,10.76
			l3.42,45.61c0.49,6.49,0.56,10.73,0.22,12.97c-0.8,5.74-3.41,10.36-7.75,13.7c-2.85,2.25-6.15,3.65-9.76,4.14
			C367.86,172.3,367.43,172.35,367.01,172.38L367.01,172.38z M361.47,86.78c-0.47,0.04-0.68,0.14-0.95,0.67
			c0,0.02-0.36,0.91-0.14,3.86l4.35,57.96c0.22,2.96,0.7,3.71,0.72,3.73c0.34,0.51,0.56,0.55,0.98,0.52c0.67-0.08,1-0.24,1.32-0.95
			c0.09-0.2,0.47-1.05,0.25-3.9l-4.3-57.26c-0.22-2.96-0.7-3.78-0.76-3.87c-0.44-0.66-0.82-0.79-1.36-0.77L361.47,86.78
			L361.47,86.78z"/>
		<path class="st0" d="M378.95,96.06c1.14,15.2,2.28,30.41,3.42,45.61c0.47,6.21,0.55,10.29,0.25,12.25
			c-0.69,4.94-2.87,8.82-6.53,11.64c-2.42,1.91-5.17,3.09-8.25,3.51c-3.71,0.51-7.11-0.18-10.2-2.11
			c-3.59-2.24-5.94-5.96-7.02-11.13c-0.32-1.63-0.7-5.21-1.11-10.73c-1.19-15.84-2.38-31.69-3.57-47.53
			c-0.49-6.47-0.58-10.71-0.28-12.7c0.68-5.04,2.87-8.77,6.57-11.14c2.45-1.6,5.23-2.41,8.33-2.45c3.79-0.05,7.22,1.02,10.28,3.18
			c3.63,2.57,5.97,6.32,7.03,11.29C378.2,87.32,378.56,90.76,378.95,96.06z M371.2,148.44c-1.43-19.08-2.87-38.17-4.3-57.26
			c-0.19-2.58-0.62-4.36-1.26-5.36c-1.02-1.54-2.4-2.29-4.15-2.24c-1.79,0.05-3.08,0.88-3.85,2.5c-0.49,1.09-0.64,2.92-0.44,5.48
			c1.45,19.32,2.9,38.64,4.35,57.96c0.19,2.56,0.6,4.33,1.25,5.29c1.01,1.48,2.38,2.11,4.12,1.9c1.78-0.22,3.03-1.16,3.77-2.83
			C371.22,152.78,371.39,150.97,371.2,148.44z"/>
		<path class="st4" d="M419.67,164.39c-6.19,0.46-11.19-1.55-14.88-5.97c-2.14-2.53-3.61-5.42-4.32-8.59
			c-0.56-2.27-0.97-5.13-1.22-8.43c-0.1-1.31-0.16-2.99-0.18-4.96l-0.02-2.74l2.7-0.45l11.36-1.9l3.55-0.59l0.18,3.6
			c0.16,3.18,0.33,5.63,0.54,7.3c0.63,5.01,2.09,4.9,2.56,4.87c0.08-0.01,0.16-0.02,0.24-0.03c0.57-0.08,2.3-0.34,1.88-5.92
			c-0.18-2.34-0.92-4.75-2.21-7.14c-0.8-1.5-2.62-3.95-5.42-7.29l-0.05-0.06l-0.04-0.06c-2.14-2.82-4.27-5.68-6.41-8.57
			c-3.51-4.76-6.14-8.92-7.86-12.37c-2.34-4.75-3.7-9.55-4.05-14.26c-0.49-6.56,0.82-11.92,3.9-15.94
			c3.04-4.05,7.36-6.32,12.79-6.73c0.72-0.05,1.46-0.08,2.22-0.06c6.47,0.1,11.67,2.64,15.43,7.57c2.74,3.53,4.43,8.3,5,14.17
			c0.07,0.93,0.18,2.33,0.32,4.27l0.22,3.01l-3,0.4c-3.76,0.5-7.52,1.01-11.28,1.54l-3.38,0.47l-0.26-3.41
			c-0.33-4.39-0.64-6.45-0.83-7.41c-0.61-2.86-1.56-2.85-2.08-2.85l-0.15,0.01c-1.26,0.09-0.98,4.35-0.94,4.84
			c0.2,2.56,0.94,4.94,2.21,7.08c0.92,1.51,3.44,5.09,6.74,9.56c2.12,2.79,4.28,5.58,6.44,8.34c6.63,8.5,10.15,16.56,10.76,24.67
			c0.38,5.07-0.41,9.54-2.35,13.29c-2.95,5.71-8.26,9.24-15.77,10.49C421.21,164.24,420.42,164.34,419.67,164.39L419.67,164.39z"/>
		<path class="st0" d="M402.27,136.41c3.78-0.63,7.56-1.26,11.35-1.9c0.17,3.28,0.36,5.79,0.57,7.54c0.71,5.6,2.85,8.14,6.44,7.62
			c3.51-0.51,5.05-3.62,4.62-9.33c-0.21-2.81-1.07-5.61-2.58-8.42c-0.95-1.77-2.88-4.36-5.78-7.83c-2.13-2.81-4.26-5.65-6.39-8.53
			c-3.45-4.69-5.97-8.68-7.56-11.89c-2.16-4.4-3.41-8.78-3.73-13.08c-0.43-5.74,0.65-10.36,3.25-13.76
			c2.85-3.79,6.99-5.62,12.42-5.53c5.51,0.08,9.82,2.23,12.93,6.31c2.39,3.08,3.84,7.24,4.36,12.53c0.07,0.87,0.17,2.26,0.31,4.19
			c-3.77,0.49-7.53,1.01-11.3,1.54c-0.28-3.7-0.58-6.31-0.9-7.82c-0.76-3.61-2.5-5.42-5.23-5.4c-3.27,0.02-4.68,2.79-4.27,8.29
			c0.23,3.05,1.11,5.88,2.65,8.48c0.89,1.46,3.19,4.78,6.9,9.82c2.17,2.84,4.34,5.64,6.5,8.41c6.17,7.9,9.52,15.39,10.09,22.93
			c0.34,4.5-0.33,8.35-2,11.58c-2.45,4.72-6.93,7.71-13.45,8.8c-6.07,1.01-10.81-0.49-14.21-4.58c-1.83-2.15-3.06-4.58-3.66-7.24
			c-0.53-2.14-0.92-4.81-1.15-7.96C402.35,139.89,402.29,138.3,402.27,136.41z"/>
		<path class="st4" d="M392.83,105.4l-2.38,0.12l-3.24,0.16l-3.16,0.16l-4.05,0.2l0.74-3.98c0.77-4.19,1.54-8.36,2.31-12.5
			l-0.31,0.01l-3.05,0.08l-0.23-3.04l-1.04-13.84l-0.26-3.43l3.44-0.02c3.9-0.02,7.8-0.03,11.69-0.02l2.97,0l0.22,2.97l1.02,13.59
			l0.04,0.52l-0.13,0.51c-1.35,5.36-2.69,10.76-4.03,16.21L392.83,105.4L392.83,105.4z"/>
		<path class="st0" d="M381.62,72.52c3.9-0.02,7.79-0.02,11.69-0.02c0.34,4.53,0.68,9.06,1.02,13.59
			c-1.35,5.36-2.7,10.77-4.05,16.23c-2.13,0.11-4.26,0.22-6.4,0.32c1.02-5.5,2.04-10.95,3.06-16.38c-1.43,0.03-2.85,0.07-4.28,0.11
			C382.32,81.75,381.97,77.13,381.62,72.52z"/>
	</g>
	<path class="st0" d="M476.24,211.22c-11.95-0.16-28.64-0.33-28.64-0.33l-3.92-1.19c0,0,0.47-0.27,3.46-1.08
		c3-0.82,1.18-2.81,1.18-2.81s0.47,0.47,5.05,0.13c4.57-0.35,2.76-3.07,2.76-3.07c1.07-0.26,12.23-2.01,19.23-3.22l-0.18-2.35
		c-9.02,0.94-22.12,1.9-22.12,1.9c3.22-1.33,14.07-5.07,21.66-7.93l-0.22-2.94c-10.33,4.69-22.41,7.14-22.41,7.14l-5.34,0.6
		l3.47-3.59l-4.24-0.29c7.29-3.99,20.33-13.41,27.37-19.07l-0.31-4.07c-12.23,10.59-30.71,22.25-30.71,22.25
		c-5.71-3.6-11.25,4.56-11.25,4.56c4.89-10.57,0.96-13.84,0.96-13.84c-0.89,7.53-6.28,16.35-6.28,16.35s-0.6-2.6-3.53-3.13
		c-2.93-0.53-12.54,6.23-12.54,6.23l0.48-1.98c5.08-4.74,3.73-12.44,3.73-12.44c-3.5,4.8-7.4,14.4-12.25,13.72
		c-8.7-1.23-9.8,3.95-9.8,3.95l-4.89,0.25c5.7-6.76,5.31-11.69,5.31-11.69c-1.02,1.67-4.09,5-6.9,7.4
		c-2.63,2.24-4.68,2.96-4.68,2.96s-2.91-0.01-7.58,0.65c-4.68,0.66-8.65,4.6-8.65,4.6s0.67-2.22-5.9-2.12
		c-6.57,0.1-13.45,6.98-13.45,6.98s0.4-2.85-1.08-3.65c-4.4-2.34-12.05,3.84-12.05,3.84l0.77-5.67c-8.74,0.48-11.55,3.72-11.55,3.72
		c-6.31-1.9-8.97,7.03-8.97,7.03l-4.1-1.23c4.51-2.43,5.08-7.76,5.08-7.76c-3.95,2.92-11.78,7.13-11.78,7.13
		c-6.37-0.54-15.69,5.27-15.69,5.27c1.61-1.92,22.59-15.43,22.59-15.43c-14.52,2.53-28.76,15.3-28.76,15.3l-3.88-0.81l5.93-7.17
		c-3,0.82-9.62,5.71-9.62,5.71c-9.38,0.29-16.6,9.47-16.6,9.47c-4.67-2.18-7.8,1.06-10.65,2.57c-109.28,6.9-208.89-5.75-208.89-5.75
		l-5.96-3.23l-0.96,9.6l7.64,3.19c14.8,2.08,108.81,11.86,209.05,5.51c2.67,0.6,4.04,1.3,7.62,0.66c2.9-0.52,4.91-1.24,5.87-1.63
		c0.26-0.02,0.53-0.04,0.8-0.07c4.12,6.01,28.04,5.37,28.04,5.37c24.19,12.11,30.24,8.59,30.24,8.59s-12.93-4.4-16.07-5.75
		c-5.37-2.31-10.7-6.19-10.7-6.19s6.31,1.9,9.66,2.21c3.34,0.32,3.28-1.77,3.28-1.77c2.54,0.31,5.02,0.52,7.8,1.21
		c3.97,1,13.25,5.26,13.25,5.26c-5.93-6.75-13.54-9.11-13.54-9.11l0.15-2.29c0,0,8.34,3.14,11.06,3.27c2.7,0.12,6.03-4.46,6.03-4.46
		c14.9,6.78,13.89-2.26,13.89-2.26s3.28,1.67,7.07,2.81c3.79,1.14,3.22-0.57,3.22-0.57l17.13,4.72c-9.78-5.64-14.08-7.93-14.08-7.93
		c1.42-1.3,1.38-1.73,1.38-1.73l8.9,1.62l2.61-3.77c5.05,4.95,8.9,2.11,8.9,2.11c4.79-0.38,15.86,3.6,15.86,3.6
		c-2.28-3.93-13.76-6.84-13.76-6.84l-1.05-1.16l-0.02-0.92l7.89,2.36l1.9-2.87c0,0,11.9,4.71,18.75-0.57
		c2.91-2.25,2.37-4.45,2.37-4.45s2.78,2.21,6.98,3.12c4.2,0.92,4.42-2.12,4.42-2.12c10.29,6.99,19.42,6.03,19.42,6.03
		c-12.13-4.25-17.17-9.21-17.17-9.21l-0.83-1.55c5.49,2.33,8.79,2.02,8.79,2.02s4.88,2.9,7.17,3.7c4.73,1.65,7.52,1.19,7.52,1.19
		s-3.62-1.58-7.36-3.68c-2.55-1.43-3.62-3.61-3.62-3.61c1.57-0.92,0.98-2.11,0.98-2.11c12.99-0.71,31.53-1.25,40-1.35L476.24,211.22
		z"/>
</g>
</svg>
